  0
SECTION
  2
BLOCKS
  0
ENDSEC
  0
SECTION
  2
ENTITIES
  0
LINE
  8
0
 10
82.3311
 20
-4.98875
 11
82.4183
 21
-4.98175
  0
LINE
  8
0
 10
82.4183
 20
-4.98175
 11
82.7135
 21
-4.94856
  0
LINE
  8
0
 10
82.7135
 20
-4.94856
 11
83.0221
 21
-4.89413
  0
LINE
  8
0
 10
83.0221
 20
-4.89413
 11
83.1076
 21
-4.87505
  0
LINE
  8
0
 10
83.1076
 20
-4.87505
 11
83.395
 21
-4.80118
  0
LINE
  8
0
 10
83.395
 20
-4.80118
 11
83.6937
 21
-4.7041
  0
LINE
  8
0
 10
83.6937
 20
-4.7041
 11
83.7753
 21
-4.67343
  0
LINE
  8
0
 10
83.7753
 20
-4.67343
 11
84.0497
 21
-4.56026
  0
LINE
  8
0
 10
84.0497
 20
-4.56026
 11
84.3317
 21
-4.4227
  0
LINE
  8
0
 10
84.3317
 20
-4.4227
 11
84.4085
 21
-4.38084
  0
LINE
  8
0
 10
84.4085
 20
-4.38084
 11
84.6639
 21
-4.23093
  0
LINE
  8
0
 10
84.6639
 20
-4.23093
 11
84.925
 21
-4.05481
  0
LINE
  8
0
 10
84.925
 20
-4.05481
 11
84.9947
 21
-4.00305
  0
LINE
  8
0
 10
84.9947
 20
-4.00305
 11
85.2267
 21
-3.81914
  0
LINE
  8
0
 10
85.2267
 20
-3.81914
 11
85.4607
 21
-3.60846
  0
LINE
  8
0
 10
85.4607
 20
-3.60846
 11
85.5227
 21
-3.54732
  0
LINE
  8
0
 10
85.5227
 20
-3.54732
 11
85.7274
 21
-3.3322
  0
LINE
  8
0
 10
85.7274
 20
-3.3322
 11
85.9289
 21
-3.09201
  0
LINE
  8
0
 10
85.9289
 20
-3.09201
 11
85.9821
 21
-3.02254
  0
LINE
  8
0
 10
85.9821
 20
-3.02254
 11
86.1545
 21
-2.78157
  0
LINE
  8
0
 10
86.1545
 20
-2.78157
 11
86.3213
 21
-2.51476
  0
LINE
  8
0
 10
86.3213
 20
-2.51476
 11
86.364
 21
-2.43886
  0
LINE
  8
0
 10
86.364
 20
-2.43886
 11
86.5012
 21
-2.17641
  0
LINE
  8
0
 10
86.5012
 20
-2.17641
 11
86.6293
 21
-1.8887
  0
LINE
  8
0
 10
86.6293
 20
-1.8887
 11
86.661
 21
-1.80777
  0
LINE
  8
0
 10
86.661
 20
-1.80777
 11
86.7604
 21
-1.52838
  0
LINE
  8
0
 10
86.7604
 20
-1.52838
 11
86.8469
 21
-1.22679
  0
LINE
  8
0
 10
86.8469
 20
-1.22679
 11
86.8672
 21
-1.14159
  0
LINE
  8
0
 10
86.8672
 20
-1.14159
 11
86.9268
 21
-0.850967
  0
LINE
  8
0
 10
86.9268
 20
-0.850967
 11
86.9705
 21
-0.539825
  0
LINE
  8
0
 10
86.9705
 20
-0.539825
 11
86.979
 21
-0.44873
  0
LINE
  8
0
 10
86.979
 20
-0.44873
 11
86.9947
 21
-0.21373
  0
LINE
  8
0
 10
86.9947
 20
-0.21373
 11
86.9979
 21
-0.138657
  0
LINE
  8
0
 10
86.9979
 20
-0.138657
 11
87
 21
0
  0
LINE
  8
0
 10
87
 20
0
 11
87
 21
19
  0
LINE
  8
0
 10
87
 20
19
 11
88.0525
 21
19.0009
  0
LINE
  8
0
 10
88.0525
 20
19.0009
 11
88.1917
 21
19.0094
  0
LINE
  8
0
 10
88.1917
 20
19.0094
 11
88.3299
 21
19.0276
  0
LINE
  8
0
 10
88.3299
 20
19.0276
 11
88.4667
 21
19.0554
  0
LINE
  8
0
 10
88.4667
 20
19.0554
 11
88.6015
 21
19.0928
  0
LINE
  8
0
 10
88.6015
 20
19.0928
 11
88.733
 21
19.1394
  0
LINE
  8
0
 10
88.733
 20
19.1394
 11
88.861
 21
19.1951
  0
LINE
  8
0
 10
88.861
 20
19.1951
 11
88.9847
 21
19.2594
  0
LINE
  8
0
 10
88.9847
 20
19.2594
 11
89.1035
 21
19.3322
  0
LINE
  8
0
 10
89.1035
 20
19.3322
 11
89.2174
 21
19.4135
  0
LINE
  8
0
 10
89.2174
 20
19.4135
 11
89.3252
 21
19.5024
  0
LINE
  8
0
 10
89.3252
 20
19.5024
 11
89.4265
 21
19.5985
  0
LINE
  8
0
 10
89.4265
 20
19.5985
 11
89.5203
 21
19.7009
  0
LINE
  8
0
 10
89.5203
 20
19.7009
 11
89.6076
 21
19.8105
  0
LINE
  8
0
 10
89.6076
 20
19.8105
 11
89.6867
 21
19.9256
  0
LINE
  8
0
 10
89.6867
 20
19.9256
 11
89.7573
 21
20.0455
  0
LINE
  8
0
 10
89.7573
 20
20.0455
 11
89.8199
 21
20.171
  0
LINE
  8
0
 10
89.8199
 20
20.171
 11
89.8732
 21
20.2998
  0
LINE
  8
0
 10
89.8732
 20
20.2998
 11
89.9173
 21
20.4318
  0
LINE
  8
0
 10
89.9173
 20
20.4318
 11
89.9524
 21
20.5675
  0
LINE
  8
0
 10
89.9524
 20
20.5675
 11
89.9778
 21
20.7046
  0
LINE
  8
0
 10
89.9778
 20
20.7046
 11
89.9827
 21
20.7392
  0
LINE
  8
0
 10
89.9827
 20
20.7392
 11
89.9952
 21
20.869
  0
LINE
  8
0
 10
89.9952
 20
20.869
 11
90
 21
21
  0
LINE
  8
0
 10
90
 20
21
 11
89.9988
 21
53.0698
  0
LINE
  8
0
 10
89.9988
 20
53.0698
 11
89.9863
 21
53.3659
  0
LINE
  8
0
 10
89.9863
 20
53.3659
 11
89.9534
 21
53.6789
  0
LINE
  8
0
 10
89.9534
 20
53.6789
 11
89.9404
 21
53.7648
  0
LINE
  8
0
 10
89.9404
 20
53.7648
 11
89.8869
 21
54.0562
  0
LINE
  8
0
 10
89.8869
 20
54.0562
 11
89.8108
 21
54.3614
  0
LINE
  8
0
 10
89.8108
 20
54.3614
 11
89.7859
 21
54.445
  0
LINE
  8
0
 10
89.7859
 20
54.445
 11
89.6922
 21
54.7265
  0
LINE
  8
0
 10
89.6922
 20
54.7265
 11
89.5744
 21
55.0178
  0
LINE
  8
0
 10
89.5744
 20
55.0178
 11
89.5383
 21
55.0969
  0
LINE
  8
0
 10
89.5383
 20
55.0969
 11
89.4063
 21
55.3626
  0
LINE
  8
0
 10
89.4063
 20
55.3626
 11
89.2494
 21
55.6344
  0
LINE
  8
0
 10
89.2494
 20
55.6344
 11
89.2022
 21
55.7081
  0
LINE
  8
0
 10
89.2022
 20
55.7081
 11
89.0343
 21
55.9532
  0
LINE
  8
0
 10
89.0343
 20
55.9532
 11
88.8416
 21
56.2
  0
LINE
  8
0
 10
88.8416
 20
56.2
 11
88.7844
 21
56.2666
  0
LINE
  8
0
 10
88.7844
 20
56.2666
 11
88.5842
 21
56.4858
  0
LINE
  8
0
 10
88.5842
 20
56.4858
 11
88.3581
 21
56.7041
  0
LINE
  8
0
 10
88.3581
 20
56.7041
 11
88.293
 21
56.7615
  0
LINE
  8
0
 10
88.293
 20
56.7615
 11
88.0645
 21
56.9504
  0
LINE
  8
0
 10
88.0645
 20
56.9504
 11
87.8105
 21
57.135
  0
LINE
  8
0
 10
87.8105
 20
57.135
 11
87.7375
 21
57.1832
  0
LINE
  8
0
 10
87.7375
 20
57.1832
 11
87.4845
 21
57.3387
  0
LINE
  8
0
 10
87.4845
 20
57.3387
 11
87.2077
 21
57.4859
  0
LINE
  8
0
 10
87.2077
 20
57.4859
 11
87.1287
 21
57.5235
  0
LINE
  8
0
 10
87.1287
 20
57.5235
 11
86.8563
 21
57.6423
  0
LINE
  8
0
 10
86.8563
 20
57.6423
 11
86.5615
 21
57.7496
  0
LINE
  8
0
 10
86.5615
 20
57.7496
 11
86.4784
 21
57.7757
  0
LINE
  8
0
 10
86.4784
 20
57.7757
 11
86.1929
 21
57.8553
  0
LINE
  8
0
 10
86.1929
 20
57.8553
 11
85.8853
 21
57.9207
  0
LINE
  8
0
 10
85.8853
 20
57.9207
 11
85.7993
 21
57.935
  0
LINE
  8
0
 10
85.7993
 20
57.935
 11
85.5051
 21
57.9741
  0
LINE
  8
0
 10
85.5051
 20
57.9741
 11
85.2137
 21
57.9947
  0
LINE
  8
0
 10
85.2137
 20
57.9947
 11
85.1387
 21
57.9979
  0
LINE
  8
0
 10
85.1387
 20
57.9979
 11
85
 21
58
  0
LINE
  8
0
 10
85
 20
58
 11
-0.069809
 21
57.9988
  0
LINE
  8
0
 10
-0.069809
 20
57.9988
 11
-0.365875
 21
57.9863
  0
LINE
  8
0
 10
-0.365875
 20
57.9863
 11
-0.678879
 21
57.9534
  0
LINE
  8
0
 10
-0.678879
 20
57.9534
 11
-0.764832
 21
57.9404
  0
LINE
  8
0
 10
-0.764832
 20
57.9404
 11
-1.05624
 21
57.8869
  0
LINE
  8
0
 10
-1.05624
 20
57.8869
 11
-1.36143
 21
57.8108
  0
LINE
  8
0
 10
-1.36143
 20
57.8108
 11
-1.44502
 21
57.7859
  0
LINE
  8
0
 10
-1.44502
 20
57.7859
 11
-1.7265
 21
57.6922
  0
LINE
  8
0
 10
-1.7265
 20
57.6922
 11
-2.01782
 21
57.5744
  0
LINE
  8
0
 10
-2.01782
 20
57.5744
 11
-2.09688
 21
57.5383
  0
LINE
  8
0
 10
-2.09688
 20
57.5383
 11
-2.36258
 21
57.4063
  0
LINE
  8
0
 10
-2.36258
 20
57.4063
 11
-2.63435
 21
57.2494
  0
LINE
  8
0
 10
-2.63435
 20
57.2494
 11
-2.70815
 21
57.2022
  0
LINE
  8
0
 10
-2.70815
 20
57.2022
 11
-2.95325
 21
57.0343
  0
LINE
  8
0
 10
-2.95325
 20
57.0343
 11
-3.19995
 21
56.8416
  0
LINE
  8
0
 10
-3.19995
 20
56.8416
 11
-3.2666
 21
56.7844
  0
LINE
  8
0
 10
-3.2666
 20
56.7844
 11
-3.48579
 21
56.5842
  0
LINE
  8
0
 10
-3.48579
 20
56.5842
 11
-3.70409
 21
56.3581
  0
LINE
  8
0
 10
-3.70409
 20
56.3581
 11
-3.76149
 21
56.293
  0
LINE
  8
0
 10
-3.76149
 20
56.293
 11
-3.95044
 21
56.0645
  0
LINE
  8
0
 10
-3.95044
 20
56.0645
 11
-4.13503
 21
55.8105
  0
LINE
  8
0
 10
-4.13503
 20
55.8105
 11
-4.18315
 21
55.7375
  0
LINE
  8
0
 10
-4.18315
 20
55.7375
 11
-4.33873
 21
55.4845
  0
LINE
  8
0
 10
-4.33873
 20
55.4845
 11
-4.48587
 21
55.2077
  0
LINE
  8
0
 10
-4.48587
 20
55.2077
 11
-4.52345
 21
55.1287
  0
LINE
  8
0
 10
-4.52345
 20
55.1287
 11
-4.64235
 21
54.8563
  0
LINE
  8
0
 10
-4.64235
 20
54.8563
 11
-4.7496
 21
54.5615
  0
LINE
  8
0
 10
-4.7496
 20
54.5615
 11
-4.77567
 21
54.4784
  0
LINE
  8
0
 10
-4.77567
 20
54.4784
 11
-4.85533
 21
54.1929
  0
LINE
  8
0
 10
-4.85533
 20
54.1929
 11
-4.92072
 21
53.8853
  0
LINE
  8
0
 10
-4.92072
 20
53.8853
 11
-4.93495
 21
53.7993
  0
LINE
  8
0
 10
-4.93495
 20
53.7993
 11
-4.97414
 21
53.5051
  0
LINE
  8
0
 10
-4.97414
 20
53.5051
 11
-4.99474
 21
53.2137
  0
LINE
  8
0
 10
-4.99474
 20
53.2137
 11
-4.99788
 21
53.1387
  0
LINE
  8
0
 10
-4.99788
 20
53.1387
 11
-5
 21
53
  0
LINE
  8
0
 10
-5
 20
53
 11
-4.99878
 21
2.93019
  0
LINE
  8
0
 10
-4.99878
 20
2.93019
 11
-4.98633
 21
2.63412
  0
LINE
  8
0
 10
-4.98633
 20
2.63412
 11
-4.95343
 21
2.32112
  0
LINE
  8
0
 10
-4.95343
 20
2.32112
 11
-4.94041
 21
2.23517
  0
LINE
  8
0
 10
-4.94041
 20
2.23517
 11
-4.88689
 21
1.94376
  0
LINE
  8
0
 10
-4.88689
 20
1.94376
 11
-4.81081
 21
1.63857
  0
LINE
  8
0
 10
-4.81081
 20
1.63857
 11
-4.78589
 21
1.55498
  0
LINE
  8
0
 10
-4.78589
 20
1.55498
 11
-4.69217
 21
1.2735
  0
LINE
  8
0
 10
-4.69217
 20
1.2735
 11
-4.57445
 21
0.982178
  0
LINE
  8
0
 10
-4.57445
 20
0.982178
 11
-4.53825
 21
0.903122
  0
LINE
  8
0
 10
-4.53825
 20
0.903122
 11
-4.4063
 21
0.637421
  0
LINE
  8
0
 10
-4.4063
 20
0.637421
 11
-4.2494
 21
0.365646
  0
LINE
  8
0
 10
-4.2494
 20
0.365646
 11
-4.20221
 21
0.291855
  0
LINE
  8
0
 10
-4.20221
 20
0.291855
 11
-4.03429
 21
0.0467529
  0
LINE
  8
0
 10
-4.03429
 20
0.0467529
 11
-3.84155
 21
-0.199951
  0
LINE
  8
0
 10
-3.84155
 20
-0.199951
 11
-3.78444
 21
-0.266602
  0
LINE
  8
0
 10
-3.78444
 20
-0.266602
 11
-3.5842
 21
-0.485794
  0
LINE
  8
0
 10
-3.5842
 20
-0.485794
 11
-3.35812
 21
-0.704086
  0
LINE
  8
0
 10
-3.35812
 20
-0.704086
 11
-3.29298
 21
-0.76149
  0
LINE
  8
0
 10
-3.29298
 20
-0.76149
 11
-3.0645
 21
-0.950439
  0
LINE
  8
0
 10
-3.0645
 20
-0.950439
 11
-2.81047
 21
-1.13503
  0
LINE
  8
0
 10
-2.81047
 20
-1.13503
 11
-2.7375
 21
-1.18315
  0
LINE
  8
0
 10
-2.7375
 20
-1.18315
 11
-2.48448
 21
-1.33873
  0
LINE
  8
0
 10
-2.48448
 20
-1.33873
 11
-2.20773
 21
-1.48587
  0
LINE
  8
0
 10
-2.20773
 20
-1.48587
 11
-2.12866
 21
-1.52345
  0
LINE
  8
0
 10
-2.12866
 20
-1.52345
 11
-1.85631
 21
-1.64235
  0
LINE
  8
0
 10
-1.85631
 20
-1.64235
 11
-1.56154
 21
-1.7496
  0
LINE
  8
0
 10
-1.56154
 20
-1.7496
 11
-1.47839
 21
-1.77567
  0
LINE
  8
0
 10
-1.47839
 20
-1.77567
 11
-1.19292
 21
-1.85533
  0
LINE
  8
0
 10
-1.19292
 20
-1.85533
 11
-0.88533
 21
-1.92072
  0
LINE
  8
0
 10
-0.88533
 20
-1.92072
 11
-0.799316
 21
-1.93495
  0
LINE
  8
0
 10
-0.799316
 20
-1.93495
 11
-0.505096
 21
-1.97414
  0
LINE
  8
0
 10
-0.505096
 20
-1.97414
 11
-0.21373
 21
-1.99474
  0
LINE
  8
0
 10
-0.21373
 20
-1.99474
 11
-0.138657
 21
-1.99788
  0
LINE
  8
0
 10
-0.138657
 20
-1.99788
 11
0
 21
-2
  0
LINE
  8
0
 10
0
 20
-2
 11
21
 21
-2
  0
LINE
  8
0
 10
21
 20
-2
 11
21.0009
 21
-3.05246
  0
LINE
  8
0
 10
21.0009
 20
-3.05246
 11
21.0094
 21
-3.19167
  0
LINE
  8
0
 10
21.0094
 20
-3.19167
 11
21.0276
 21
-3.32988
  0
LINE
  8
0
 10
21.0276
 20
-3.32988
 11
21.0554
 21
-3.46667
  0
LINE
  8
0
 10
21.0554
 20
-3.46667
 11
21.0928
 21
-3.60152
  0
LINE
  8
0
 10
21.0928
 20
-3.60152
 11
21.1394
 21
-3.73296
  0
LINE
  8
0
 10
21.1394
 20
-3.73296
 11
21.1951
 21
-3.86104
  0
LINE
  8
0
 10
21.1951
 20
-3.86104
 11
21.2594
 21
-3.98466
  0
LINE
  8
0
 10
21.2594
 20
-3.98466
 11
21.3322
 21
-4.1035
  0
LINE
  8
0
 10
21.3322
 20
-4.1035
 11
21.4135
 21
-4.21744
  0
LINE
  8
0
 10
21.4135
 20
-4.21744
 11
21.5024
 21
-4.32521
  0
LINE
  8
0
 10
21.5024
 20
-4.32521
 11
21.5985
 21
-4.42653
  0
LINE
  8
0
 10
21.5985
 20
-4.42653
 11
21.7009
 21
-4.52034
  0
LINE
  8
0
 10
21.7009
 20
-4.52034
 11
21.8105
 21
-4.60757
  0
LINE
  8
0
 10
21.8105
 20
-4.60757
 11
21.9256
 21
-4.68666
  0
LINE
  8
0
 10
21.9256
 20
-4.68666
 11
22.0455
 21
-4.75731
  0
LINE
  8
0
 10
22.0455
 20
-4.75731
 11
22.171
 21
-4.81985
  0
LINE
  8
0
 10
22.171
 20
-4.81985
 11
22.2998
 21
-4.87317
  0
LINE
  8
0
 10
22.2998
 20
-4.87317
 11
22.4318
 21
-4.91734
  0
LINE
  8
0
 10
22.4318
 20
-4.91734
 11
22.5675
 21
-4.95244
  0
LINE
  8
0
 10
22.5675
 20
-4.95244
 11
22.7046
 21
-4.97783
  0
LINE
  8
0
 10
22.7046
 20
-4.97783
 11
22.7392
 21
-4.98268
  0
LINE
  8
0
 10
22.7392
 20
-4.98268
 11
22.869
 21
-4.99519
  0
LINE
  8
0
 10
22.869
 20
-4.99519
 11
23
 21
-5
  0
LINE
  8
0
 10
23
 20
-5
 11
82
 21
-5
  0
LINE
  8
0
 10
82
 20
-5
 11
82.3311
 21
-4.98875
  0
LINE
  8
0
 10
23
 20
-3.5
 11
22.9477
 21
-3.49725
  0
LINE
  8
0
 10
22.9477
 20
-3.49725
 11
22.9132
 21
-3.4924
  0
LINE
  8
0
 10
22.9132
 20
-3.4924
 11
22.879
 21
-3.48515
  0
LINE
  8
0
 10
22.879
 20
-3.48515
 11
22.8455
 21
-3.47552
  0
LINE
  8
0
 10
22.8455
 20
-3.47552
 11
22.8127
 21
-3.46359
  0
LINE
  8
0
 10
22.8127
 20
-3.46359
 11
22.7808
 21
-3.4494
  0
LINE
  8
0
 10
22.7808
 20
-3.4494
 11
22.75
 21
-3.43301
  0
LINE
  8
0
 10
22.75
 20
-3.43301
 11
22.7204
 21
-3.41452
  0
LINE
  8
0
 10
22.7204
 20
-3.41452
 11
22.6922
 21
-3.39401
  0
LINE
  8
0
 10
22.6922
 20
-3.39401
 11
22.6654
 21
-3.37157
  0
LINE
  8
0
 10
22.6654
 20
-3.37157
 11
22.6403
 21
-3.34734
  0
LINE
  8
0
 10
22.6403
 20
-3.34734
 11
22.617
 21
-3.3214
  0
LINE
  8
0
 10
22.617
 20
-3.3214
 11
22.5955
 21
-3.2939
  0
LINE
  8
0
 10
22.5955
 20
-3.2939
 11
22.576
 21
-3.26495
  0
LINE
  8
0
 10
22.576
 20
-3.26495
 11
22.5585
 21
-3.23474
  0
LINE
  8
0
 10
22.5585
 20
-3.23474
 11
22.5432
 21
-3.20337
  0
LINE
  8
0
 10
22.5432
 20
-3.20337
 11
22.5302
 21
-3.17101
  0
LINE
  8
0
 10
22.5302
 20
-3.17101
 11
22.5194
 21
-3.13782
  0
LINE
  8
0
 10
22.5194
 20
-3.13782
 11
22.5109
 21
-3.10396
  0
LINE
  8
0
 10
22.5109
 20
-3.10396
 11
22.5049
 21
-3.06958
  0
LINE
  8
0
 10
22.5049
 20
-3.06958
 11
22.5012
 21
-3.03488
  0
LINE
  8
0
 10
22.5012
 20
-3.03488
 11
22.5
 21
-3
  0
LINE
  8
0
 10
22.5
 20
-3
 11
22.5
 21
-0.5
  0
LINE
  8
0
 10
22.5
 20
-0.5
 11
0
 21
-0.5
  0
LINE
  8
0
 10
0
 20
-0.5
 11
-0.113449
 21
-0.498093
  0
LINE
  8
0
 10
-0.113449
 20
-0.498093
 11
-0.34845
 21
-0.482346
  0
LINE
  8
0
 10
-0.34845
 20
-0.482346
 11
-0.383179
 21
-0.478699
  0
LINE
  8
0
 10
-0.383179
 20
-0.478699
 11
-0.590546
 21
-0.449554
  0
LINE
  8
0
 10
-0.590546
 20
-0.449554
 11
-0.624908
 21
-0.443497
  0
LINE
  8
0
 10
-0.624908
 20
-0.443497
 11
-0.829727
 21
-0.399963
  0
LINE
  8
0
 10
-0.829727
 20
-0.399963
 11
-0.863602
 21
-0.39151
  0
LINE
  8
0
 10
-0.863602
 20
-0.39151
 11
-1.06488
 21
-0.333786
  0
LINE
  8
0
 10
-1.06488
 20
-0.333786
 11
-1.09804
 21
-0.323013
  0
LINE
  8
0
 10
-1.09804
 20
-0.323013
 11
-1.29482
 21
-0.251404
  0
LINE
  8
0
 10
-1.29482
 20
-0.251404
 11
-1.32721
 21
-0.238327
  0
LINE
  8
0
 10
-1.32721
 20
-0.238327
 11
-1.51849
 21
-0.153152
  0
LINE
  8
0
 10
-1.51849
 20
-0.153152
 11
-1.54982
 21
-0.137863
  0
LINE
  8
0
 10
-1.54982
 20
-0.137863
 11
-1.73471
 21
-0.039566
  0
LINE
  8
0
 10
-1.73471
 20
-0.039566
 11
-1.76498
 21
-0.0220947
  0
LINE
  8
0
 10
-1.76498
 20
-0.0220947
 11
-1.94257
 21
0.0888824
  0
LINE
  8
0
 10
-1.94257
 20
0.0888824
 11
-1.97147
 21
0.108383
  0
LINE
  8
0
 10
-1.97147
 20
0.108383
 11
-2.14087
 21
0.231461
  0
LINE
  8
0
 10
-2.14087
 20
0.231461
 11
-2.16838
 21
0.25296
  0
LINE
  8
0
 10
-2.16838
 20
0.25296
 11
-2.32878
 21
0.387558
  0
LINE
  8
0
 10
-2.32878
 20
0.387558
 11
-2.35471
 21
0.410889
  0
LINE
  8
0
 10
-2.35471
 20
0.410889
 11
-2.50534
 21
0.556351
  0
LINE
  8
0
 10
-2.50534
 20
0.556351
 11
-2.5296
 21
0.581467
  0
LINE
  8
0
 10
-2.5296
 20
0.581467
 11
-2.66971
 21
0.737076
  0
LINE
  8
0
 10
-2.66971
 20
0.737076
 11
-2.69212
 21
0.763809
  0
LINE
  8
0
 10
-2.69212
 20
0.763809
 11
-2.82104
 21
0.928818
  0
LINE
  8
0
 10
-2.82104
 20
0.928818
 11
-2.84157
 21
0.957047
  0
LINE
  8
0
 10
-2.84157
 20
0.957047
 11
-2.95866
 21
1.13065
  0
LINE
  8
0
 10
-2.95866
 20
1.13065
 11
-2.97714
 21
1.16023
  0
LINE
  8
0
 10
-2.97714
 20
1.16023
 11
-3.08185
 21
1.34157
  0
LINE
  8
0
 10
-3.08185
 20
1.34157
 11
-3.09825
 21
1.37242
  0
LINE
  8
0
 10
-3.09825
 20
1.37242
 11
-3.19003
 21
1.56062
  0
LINE
  8
0
 10
-3.19003
 20
1.56062
 11
-3.20422
 21
1.59248
  0
LINE
  8
0
 10
-3.20422
 20
1.59248
 11
-3.28267
 21
1.78664
  0
LINE
  8
0
 10
-3.28267
 20
1.78664
 11
-3.2946
 21
1.81941
  0
LINE
  8
0
 10
-3.2946
 20
1.81941
 11
-3.35931
 21
2.01855
  0
LINE
  8
0
 10
-3.35931
 20
2.01855
 11
-3.36894
 21
2.05212
  0
LINE
  8
0
 10
-3.36894
 20
2.05212
 11
-3.4196
 21
2.25531
  0
LINE
  8
0
 10
-3.4196
 20
2.25531
 11
-3.42685
 21
2.28944
  0
LINE
  8
0
 10
-3.42685
 20
2.28944
 11
-3.46321
 21
2.49565
  0
LINE
  8
0
 10
-3.46321
 20
2.49565
 11
-3.46808
 21
2.53023
  0
LINE
  8
0
 10
-3.46808
 20
2.53023
 11
-3.48996
 21
2.73848
  0
LINE
  8
0
 10
-3.48996
 20
2.73848
 11
-3.49239
 21
2.77327
  0
LINE
  8
0
 10
-3.49239
 20
2.77327
 11
-3.49969
 21
2.98254
  0
LINE
  8
0
 10
-3.49969
 20
2.98254
 11
-3.5
 21
53
  0
LINE
  8
0
 10
-3.5
 20
53
 11
-3.49809
 21
53.1134
  0
LINE
  8
0
 10
-3.49809
 20
53.1134
 11
-3.48235
 21
53.3484
  0
LINE
  8
0
 10
-3.48235
 20
53.3484
 11
-3.4787
 21
53.3832
  0
LINE
  8
0
 10
-3.4787
 20
53.3832
 11
-3.44955
 21
53.5905
  0
LINE
  8
0
 10
-3.44955
 20
53.5905
 11
-3.4435
 21
53.6249
  0
LINE
  8
0
 10
-3.4435
 20
53.6249
 11
-3.39996
 21
53.8297
  0
LINE
  8
0
 10
-3.39996
 20
53.8297
 11
-3.39151
 21
53.8636
  0
LINE
  8
0
 10
-3.39151
 20
53.8636
 11
-3.33379
 21
54.0649
  0
LINE
  8
0
 10
-3.33379
 20
54.0649
 11
-3.32301
 21
54.098
  0
LINE
  8
0
 10
-3.32301
 20
54.098
 11
-3.2514
 21
54.2948
  0
LINE
  8
0
 10
-3.2514
 20
54.2948
 11
-3.23833
 21
54.3272
  0
LINE
  8
0
 10
-3.23833
 20
54.3272
 11
-3.15315
 21
54.5185
  0
LINE
  8
0
 10
-3.15315
 20
54.5185
 11
-3.13786
 21
54.5498
  0
LINE
  8
0
 10
-3.13786
 20
54.5498
 11
-3.03957
 21
54.7347
  0
LINE
  8
0
 10
-3.03957
 20
54.7347
 11
-3.02209
 21
54.765
  0
LINE
  8
0
 10
-3.02209
 20
54.765
 11
-2.91112
 21
54.9426
  0
LINE
  8
0
 10
-2.91112
 20
54.9426
 11
-2.89162
 21
54.9715
  0
LINE
  8
0
 10
-2.89162
 20
54.9715
 11
-2.76854
 21
55.1409
  0
LINE
  8
0
 10
-2.76854
 20
55.1409
 11
-2.74704
 21
55.1684
  0
LINE
  8
0
 10
-2.74704
 20
55.1684
 11
-2.61244
 21
55.3288
  0
LINE
  8
0
 10
-2.61244
 20
55.3288
 11
-2.58911
 21
55.3547
  0
LINE
  8
0
 10
-2.58911
 20
55.3547
 11
-2.44365
 21
55.5053
  0
LINE
  8
0
 10
-2.44365
 20
55.5053
 11
-2.41853
 21
55.5296
  0
LINE
  8
0
 10
-2.41853
 20
55.5296
 11
-2.26292
 21
55.6697
  0
LINE
  8
0
 10
-2.26292
 20
55.6697
 11
-2.23619
 21
55.6921
  0
LINE
  8
0
 10
-2.23619
 20
55.6921
 11
-2.07118
 21
55.821
  0
LINE
  8
0
 10
-2.07118
 20
55.821
 11
-2.04295
 21
55.8416
  0
LINE
  8
0
 10
-2.04295
 20
55.8416
 11
-1.86935
 21
55.9587
  0
LINE
  8
0
 10
-1.86935
 20
55.9587
 11
-1.83977
 21
55.9771
  0
LINE
  8
0
 10
-1.83977
 20
55.9771
 11
-1.65843
 21
56.0818
  0
LINE
  8
0
 10
-1.65843
 20
56.0818
 11
-1.62758
 21
56.0983
  0
LINE
  8
0
 10
-1.62758
 20
56.0983
 11
-1.43938
 21
56.19
  0
LINE
  8
0
 10
-1.43938
 20
56.19
 11
-1.40752
 21
56.2042
  0
LINE
  8
0
 10
-1.40752
 20
56.2042
 11
-1.21336
 21
56.2827
  0
LINE
  8
0
 10
-1.21336
 20
56.2827
 11
-1.18059
 21
56.2946
  0
LINE
  8
0
 10
-1.18059
 20
56.2946
 11
-0.981445
 21
56.3593
  0
LINE
  8
0
 10
-0.981445
 20
56.3593
 11
-0.947876
 21
56.3689
  0
LINE
  8
0
 10
-0.947876
 20
56.3689
 11
-0.74469
 21
56.4196
  0
LINE
  8
0
 10
-0.74469
 20
56.4196
 11
-0.710556
 21
56.4268
  0
LINE
  8
0
 10
-0.710556
 20
56.4268
 11
-0.504349
 21
56.4632
  0
LINE
  8
0
 10
-0.504349
 20
56.4632
 11
-0.469772
 21
56.4681
  0
LINE
  8
0
 10
-0.469772
 20
56.4681
 11
-0.26152
 21
56.49
  0
LINE
  8
0
 10
-0.26152
 20
56.49
 11
-0.22673
 21
56.4924
  0
LINE
  8
0
 10
-0.22673
 20
56.4924
 11
-0.0174561
 21
56.4997
  0
LINE
  8
0
 10
-0.0174561
 20
56.4997
 11
85
 21
56.5
  0
LINE
  8
0
 10
85
 20
56.5
 11
85.1134
 21
56.4981
  0
LINE
  8
0
 10
85.1134
 20
56.4981
 11
85.3484
 21
56.4823
  0
LINE
  8
0
 10
85.3484
 20
56.4823
 11
85.3832
 21
56.4787
  0
LINE
  8
0
 10
85.3832
 20
56.4787
 11
85.5905
 21
56.4496
  0
LINE
  8
0
 10
85.5905
 20
56.4496
 11
85.6249
 21
56.4435
  0
LINE
  8
0
 10
85.6249
 20
56.4435
 11
85.8297
 21
56.4
  0
LINE
  8
0
 10
85.8297
 20
56.4
 11
85.8636
 21
56.3915
  0
LINE
  8
0
 10
85.8636
 20
56.3915
 11
86.0649
 21
56.3338
  0
LINE
  8
0
 10
86.0649
 20
56.3338
 11
86.098
 21
56.323
  0
LINE
  8
0
 10
86.098
 20
56.323
 11
86.2948
 21
56.2514
  0
LINE
  8
0
 10
86.2948
 20
56.2514
 11
86.3272
 21
56.2383
  0
LINE
  8
0
 10
86.3272
 20
56.2383
 11
86.5185
 21
56.1532
  0
LINE
  8
0
 10
86.5185
 20
56.1532
 11
86.5498
 21
56.1379
  0
LINE
  8
0
 10
86.5498
 20
56.1379
 11
86.7347
 21
56.0396
  0
LINE
  8
0
 10
86.7347
 20
56.0396
 11
86.765
 21
56.0221
  0
LINE
  8
0
 10
86.765
 20
56.0221
 11
86.9426
 21
55.9111
  0
LINE
  8
0
 10
86.9426
 20
55.9111
 11
86.9715
 21
55.8916
  0
LINE
  8
0
 10
86.9715
 20
55.8916
 11
87.1409
 21
55.7685
  0
LINE
  8
0
 10
87.1409
 20
55.7685
 11
87.1684
 21
55.747
  0
LINE
  8
0
 10
87.1684
 20
55.747
 11
87.3288
 21
55.6124
  0
LINE
  8
0
 10
87.3288
 20
55.6124
 11
87.3547
 21
55.5891
  0
LINE
  8
0
 10
87.3547
 20
55.5891
 11
87.5053
 21
55.4436
  0
LINE
  8
0
 10
87.5053
 20
55.4436
 11
87.5296
 21
55.4185
  0
LINE
  8
0
 10
87.5296
 20
55.4185
 11
87.6697
 21
55.2629
  0
LINE
  8
0
 10
87.6697
 20
55.2629
 11
87.6921
 21
55.2362
  0
LINE
  8
0
 10
87.6921
 20
55.2362
 11
87.821
 21
55.0712
  0
LINE
  8
0
 10
87.821
 20
55.0712
 11
87.8416
 21
55.043
  0
LINE
  8
0
 10
87.8416
 20
55.043
 11
87.9587
 21
54.8694
  0
LINE
  8
0
 10
87.9587
 20
54.8694
 11
87.9771
 21
54.8398
  0
LINE
  8
0
 10
87.9771
 20
54.8398
 11
88.0818
 21
54.6584
  0
LINE
  8
0
 10
88.0818
 20
54.6584
 11
88.0983
 21
54.6276
  0
LINE
  8
0
 10
88.0983
 20
54.6276
 11
88.19
 21
54.4394
  0
LINE
  8
0
 10
88.19
 20
54.4394
 11
88.2042
 21
54.4075
  0
LINE
  8
0
 10
88.2042
 20
54.4075
 11
88.2827
 21
54.2134
  0
LINE
  8
0
 10
88.2827
 20
54.2134
 11
88.2946
 21
54.1806
  0
LINE
  8
0
 10
88.2946
 20
54.1806
 11
88.3593
 21
53.9814
  0
LINE
  8
0
 10
88.3593
 20
53.9814
 11
88.3689
 21
53.9479
  0
LINE
  8
0
 10
88.3689
 20
53.9479
 11
88.4196
 21
53.7447
  0
LINE
  8
0
 10
88.4196
 20
53.7447
 11
88.4268
 21
53.7106
  0
LINE
  8
0
 10
88.4268
 20
53.7106
 11
88.4632
 21
53.5043
  0
LINE
  8
0
 10
88.4632
 20
53.5043
 11
88.4681
 21
53.4698
  0
LINE
  8
0
 10
88.4681
 20
53.4698
 11
88.49
 21
53.2615
  0
LINE
  8
0
 10
88.49
 20
53.2615
 11
88.4924
 21
53.2267
  0
LINE
  8
0
 10
88.4924
 20
53.2267
 11
88.4997
 21
53.0175
  0
LINE
  8
0
 10
88.4997
 20
53.0175
 11
88.5
 21
21
  0
LINE
  8
0
 10
88.5
 20
21
 11
88.4973
 21
20.9477
  0
LINE
  8
0
 10
88.4973
 20
20.9477
 11
88.4924
 21
20.9132
  0
LINE
  8
0
 10
88.4924
 20
20.9132
 11
88.4852
 21
20.879
  0
LINE
  8
0
 10
88.4852
 20
20.879
 11
88.4755
 21
20.8455
  0
LINE
  8
0
 10
88.4755
 20
20.8455
 11
88.4636
 21
20.8127
  0
LINE
  8
0
 10
88.4636
 20
20.8127
 11
88.4494
 21
20.7808
  0
LINE
  8
0
 10
88.4494
 20
20.7808
 11
88.433
 21
20.75
  0
LINE
  8
0
 10
88.433
 20
20.75
 11
88.4145
 21
20.7204
  0
LINE
  8
0
 10
88.4145
 20
20.7204
 11
88.394
 21
20.6922
  0
LINE
  8
0
 10
88.394
 20
20.6922
 11
88.3716
 21
20.6654
  0
LINE
  8
0
 10
88.3716
 20
20.6654
 11
88.3473
 21
20.6403
  0
LINE
  8
0
 10
88.3473
 20
20.6403
 11
88.3214
 21
20.617
  0
LINE
  8
0
 10
88.3214
 20
20.617
 11
88.2939
 21
20.5955
  0
LINE
  8
0
 10
88.2939
 20
20.5955
 11
88.265
 21
20.576
  0
LINE
  8
0
 10
88.265
 20
20.576
 11
88.2347
 21
20.5585
  0
LINE
  8
0
 10
88.2347
 20
20.5585
 11
88.2034
 21
20.5432
  0
LINE
  8
0
 10
88.2034
 20
20.5432
 11
88.171
 21
20.5302
  0
LINE
  8
0
 10
88.171
 20
20.5302
 11
88.1378
 21
20.5194
  0
LINE
  8
0
 10
88.1378
 20
20.5194
 11
88.104
 21
20.5109
  0
LINE
  8
0
 10
88.104
 20
20.5109
 11
88.0696
 21
20.5049
  0
LINE
  8
0
 10
88.0696
 20
20.5049
 11
88.0349
 21
20.5012
  0
LINE
  8
0
 10
88.0349
 20
20.5012
 11
88
 21
20.5
  0
LINE
  8
0
 10
88
 20
20.5
 11
85.5
 21
20.5
  0
LINE
  8
0
 10
85.5
 20
20.5
 11
85.5
 21
0
  0
LINE
  8
0
 10
85.5
 20
0
 11
85.4981
 21
-0.113449
  0
LINE
  8
0
 10
85.4981
 20
-0.113449
 11
85.4823
 21
-0.34845
  0
LINE
  8
0
 10
85.4823
 20
-0.34845
 11
85.4787
 21
-0.383179
  0
LINE
  8
0
 10
85.4787
 20
-0.383179
 11
85.4496
 21
-0.590546
  0
LINE
  8
0
 10
85.4496
 20
-0.590546
 11
85.4435
 21
-0.624908
  0
LINE
  8
0
 10
85.4435
 20
-0.624908
 11
85.4
 21
-0.829727
  0
LINE
  8
0
 10
85.4
 20
-0.829727
 11
85.3915
 21
-0.863602
  0
LINE
  8
0
 10
85.3915
 20
-0.863602
 11
85.3338
 21
-1.06488
  0
LINE
  8
0
 10
85.3338
 20
-1.06488
 11
85.323
 21
-1.09804
  0
LINE
  8
0
 10
85.323
 20
-1.09804
 11
85.2514
 21
-1.29482
  0
LINE
  8
0
 10
85.2514
 20
-1.29482
 11
85.2383
 21
-1.32721
  0
LINE
  8
0
 10
85.2383
 20
-1.32721
 11
85.1532
 21
-1.51849
  0
LINE
  8
0
 10
85.1532
 20
-1.51849
 11
85.1379
 21
-1.54982
  0
LINE
  8
0
 10
85.1379
 20
-1.54982
 11
85.0396
 21
-1.73471
  0
LINE
  8
0
 10
85.0396
 20
-1.73471
 11
85.0221
 21
-1.76498
  0
LINE
  8
0
 10
85.0221
 20
-1.76498
 11
84.9111
 21
-1.94257
  0
LINE
  8
0
 10
84.9111
 20
-1.94257
 11
84.8916
 21
-1.97147
  0
LINE
  8
0
 10
84.8916
 20
-1.97147
 11
84.7685
 21
-2.14087
  0
LINE
  8
0
 10
84.7685
 20
-2.14087
 11
84.747
 21
-2.16838
  0
LINE
  8
0
 10
84.747
 20
-2.16838
 11
84.6124
 21
-2.32878
  0
LINE
  8
0
 10
84.6124
 20
-2.32878
 11
84.5891
 21
-2.35471
  0
LINE
  8
0
 10
84.5891
 20
-2.35471
 11
84.4436
 21
-2.50534
  0
LINE
  8
0
 10
84.4436
 20
-2.50534
 11
84.4185
 21
-2.5296
  0
LINE
  8
0
 10
84.4185
 20
-2.5296
 11
84.2629
 21
-2.66971
  0
LINE
  8
0
 10
84.2629
 20
-2.66971
 11
84.2362
 21
-2.69212
  0
LINE
  8
0
 10
84.2362
 20
-2.69212
 11
84.0712
 21
-2.82104
  0
LINE
  8
0
 10
84.0712
 20
-2.82104
 11
84.043
 21
-2.84157
  0
LINE
  8
0
 10
84.043
 20
-2.84157
 11
83.8694
 21
-2.95866
  0
LINE
  8
0
 10
83.8694
 20
-2.95866
 11
83.8398
 21
-2.97714
  0
LINE
  8
0
 10
83.8398
 20
-2.97714
 11
83.6584
 21
-3.08185
  0
LINE
  8
0
 10
83.6584
 20
-3.08185
 11
83.6276
 21
-3.09825
  0
LINE
  8
0
 10
83.6276
 20
-3.09825
 11
83.4394
 21
-3.19003
  0
LINE
  8
0
 10
83.4394
 20
-3.19003
 11
83.4075
 21
-3.20422
  0
LINE
  8
0
 10
83.4075
 20
-3.20422
 11
83.2134
 21
-3.28267
  0
LINE
  8
0
 10
83.2134
 20
-3.28267
 11
83.1806
 21
-3.2946
  0
LINE
  8
0
 10
83.1806
 20
-3.2946
 11
82.9814
 21
-3.35931
  0
LINE
  8
0
 10
82.9814
 20
-3.35931
 11
82.9479
 21
-3.36894
  0
LINE
  8
0
 10
82.9479
 20
-3.36894
 11
82.7447
 21
-3.4196
  0
LINE
  8
0
 10
82.7447
 20
-3.4196
 11
82.7106
 21
-3.42685
  0
LINE
  8
0
 10
82.7106
 20
-3.42685
 11
82.5043
 21
-3.46321
  0
LINE
  8
0
 10
82.5043
 20
-3.46321
 11
82.4698
 21
-3.46808
  0
LINE
  8
0
 10
82.4698
 20
-3.46808
 11
82.2615
 21
-3.48996
  0
LINE
  8
0
 10
82.2615
 20
-3.48996
 11
82.2267
 21
-3.49239
  0
LINE
  8
0
 10
82.2267
 20
-3.49239
 11
82
 21
-3.5
  0
LINE
  8
0
 10
82
 20
-3.5
 11
23
 21
-3.5
  0
LINE
  8
0
 10
3.63065
 20
51.2568
 11
3.71706
 21
51.269
  0
LINE
  8
0
 10
3.71706
 20
51.269
 11
3.8024
 21
51.2871
  0
LINE
  8
0
 10
3.8024
 20
51.2871
 11
3.88626
 21
51.3112
  0
LINE
  8
0
 10
3.88626
 20
51.3112
 11
3.96825
 21
51.341
  0
LINE
  8
0
 10
3.96825
 20
51.341
 11
4.04796
 21
51.3765
  0
LINE
  8
0
 10
4.04796
 20
51.3765
 11
4.125
 21
51.4175
  0
LINE
  8
0
 10
4.125
 20
51.4175
 11
4.19899
 21
51.4637
  0
LINE
  8
0
 10
4.19899
 20
51.4637
 11
4.26956
 21
51.515
  0
LINE
  8
0
 10
4.26956
 20
51.515
 11
4.33641
 21
51.5711
  0
LINE
  8
0
 10
4.33641
 20
51.5711
 11
4.39917
 21
51.6317
  0
LINE
  8
0
 10
4.39917
 20
51.6317
 11
4.45755
 21
51.6965
  0
LINE
  8
0
 10
4.45755
 20
51.6965
 11
4.51126
 21
51.7653
  0
LINE
  8
0
 10
4.51126
 20
51.7653
 11
4.56006
 21
51.8376
  0
LINE
  8
0
 10
4.56006
 20
51.8376
 11
4.60368
 21
51.9131
  0
LINE
  8
0
 10
4.60368
 20
51.9131
 11
4.64192
 21
51.9916
  0
LINE
  8
0
 10
4.64192
 20
51.9916
 11
4.67461
 21
52.0725
  0
LINE
  8
0
 10
4.67461
 20
52.0725
 11
4.70157
 21
52.1554
  0
LINE
  8
0
 10
4.70157
 20
52.1554
 11
4.72267
 21
52.2401
  0
LINE
  8
0
 10
4.72267
 20
52.2401
 11
4.73782
 21
52.326
  0
LINE
  8
0
 10
4.73782
 20
52.326
 11
4.74695
 21
52.4128
  0
LINE
  8
0
 10
4.74695
 20
52.4128
 11
4.75
 21
52.5
  0
LINE
  8
0
 10
4.75
 20
52.5
 11
4.74695
 21
52.5872
  0
LINE
  8
0
 10
4.74695
 20
52.5872
 11
4.73782
 21
52.674
  0
LINE
  8
0
 10
4.73782
 20
52.674
 11
4.72267
 21
52.7599
  0
LINE
  8
0
 10
4.72267
 20
52.7599
 11
4.70157
 21
52.8445
  0
LINE
  8
0
 10
4.70157
 20
52.8445
 11
4.67461
 21
52.9275
  0
LINE
  8
0
 10
4.67461
 20
52.9275
 11
4.64192
 21
53.0084
  0
LINE
  8
0
 10
4.64192
 20
53.0084
 11
4.60368
 21
53.0868
  0
LINE
  8
0
 10
4.60368
 20
53.0868
 11
4.56006
 21
53.1624
  0
LINE
  8
0
 10
4.56006
 20
53.1624
 11
4.51126
 21
53.2347
  0
LINE
  8
0
 10
4.51126
 20
53.2347
 11
4.45755
 21
53.3035
  0
LINE
  8
0
 10
4.45755
 20
53.3035
 11
4.39917
 21
53.3683
  0
LINE
  8
0
 10
4.39917
 20
53.3683
 11
4.33641
 21
53.4289
  0
LINE
  8
0
 10
4.33641
 20
53.4289
 11
4.26956
 21
53.485
  0
LINE
  8
0
 10
4.26956
 20
53.485
 11
4.19899
 21
53.5363
  0
LINE
  8
0
 10
4.19899
 20
53.5363
 11
4.125
 21
53.5825
  0
LINE
  8
0
 10
4.125
 20
53.5825
 11
4.04796
 21
53.6235
  0
LINE
  8
0
 10
4.04796
 20
53.6235
 11
3.96825
 21
53.659
  0
LINE
  8
0
 10
3.96825
 20
53.659
 11
3.88626
 21
53.6888
  0
LINE
  8
0
 10
3.88626
 20
53.6888
 11
3.8024
 21
53.7129
  0
LINE
  8
0
 10
3.8024
 20
53.7129
 11
3.71706
 21
53.731
  0
LINE
  8
0
 10
3.71706
 20
53.731
 11
3.63065
 21
53.7431
  0
LINE
  8
0
 10
3.63065
 20
53.7431
 11
3.54361
 21
53.7492
  0
LINE
  8
0
 10
3.54361
 20
53.7492
 11
3.45638
 21
53.7492
  0
LINE
  8
0
 10
3.45638
 20
53.7492
 11
3.36934
 21
53.7431
  0
LINE
  8
0
 10
3.36934
 20
53.7431
 11
3.28293
 21
53.731
  0
LINE
  8
0
 10
3.28293
 20
53.731
 11
3.19759
 21
53.7129
  0
LINE
  8
0
 10
3.19759
 20
53.7129
 11
3.11372
 21
53.6888
  0
LINE
  8
0
 10
3.11372
 20
53.6888
 11
3.03174
 21
53.659
  0
LINE
  8
0
 10
3.03174
 20
53.659
 11
2.95203
 21
53.6235
  0
LINE
  8
0
 10
2.95203
 20
53.6235
 11
2.875
 21
53.5825
  0
LINE
  8
0
 10
2.875
 20
53.5825
 11
2.80099
 21
53.5363
  0
LINE
  8
0
 10
2.80099
 20
53.5363
 11
2.73042
 21
53.485
  0
LINE
  8
0
 10
2.73042
 20
53.485
 11
2.66357
 21
53.4289
  0
LINE
  8
0
 10
2.66357
 20
53.4289
 11
2.60081
 21
53.3683
  0
LINE
  8
0
 10
2.60081
 20
53.3683
 11
2.54243
 21
53.3035
  0
LINE
  8
0
 10
2.54243
 20
53.3035
 11
2.48872
 21
53.2347
  0
LINE
  8
0
 10
2.48872
 20
53.2347
 11
2.43993
 21
53.1624
  0
LINE
  8
0
 10
2.43993
 20
53.1624
 11
2.3963
 21
53.0868
  0
LINE
  8
0
 10
2.3963
 20
53.0868
 11
2.35806
 21
53.0084
  0
LINE
  8
0
 10
2.35806
 20
53.0084
 11
2.32538
 21
52.9275
  0
LINE
  8
0
 10
2.32538
 20
52.9275
 11
2.29842
 21
52.8445
  0
LINE
  8
0
 10
2.29842
 20
52.8445
 11
2.27731
 21
52.7599
  0
LINE
  8
0
 10
2.27731
 20
52.7599
 11
2.26216
 21
52.674
  0
LINE
  8
0
 10
2.26216
 20
52.674
 11
2.25304
 21
52.5872
  0
LINE
  8
0
 10
2.25304
 20
52.5872
 11
2.25
 21
52.5
  0
LINE
  8
0
 10
2.25
 20
52.5
 11
2.25304
 21
52.4128
  0
LINE
  8
0
 10
2.25304
 20
52.4128
 11
2.26216
 21
52.326
  0
LINE
  8
0
 10
2.26216
 20
52.326
 11
2.27731
 21
52.2401
  0
LINE
  8
0
 10
2.27731
 20
52.2401
 11
2.29842
 21
52.1554
  0
LINE
  8
0
 10
2.29842
 20
52.1554
 11
2.32538
 21
52.0725
  0
LINE
  8
0
 10
2.32538
 20
52.0725
 11
2.35806
 21
51.9916
  0
LINE
  8
0
 10
2.35806
 20
51.9916
 11
2.3963
 21
51.9131
  0
LINE
  8
0
 10
2.3963
 20
51.9131
 11
2.43993
 21
51.8376
  0
LINE
  8
0
 10
2.43993
 20
51.8376
 11
2.48872
 21
51.7653
  0
LINE
  8
0
 10
2.48872
 20
51.7653
 11
2.54243
 21
51.6965
  0
LINE
  8
0
 10
2.54243
 20
51.6965
 11
2.60081
 21
51.6317
  0
LINE
  8
0
 10
2.60081
 20
51.6317
 11
2.66357
 21
51.5711
  0
LINE
  8
0
 10
2.66357
 20
51.5711
 11
2.73042
 21
51.515
  0
LINE
  8
0
 10
2.73042
 20
51.515
 11
2.80099
 21
51.4637
  0
LINE
  8
0
 10
2.80099
 20
51.4637
 11
2.87498
 21
51.4175
  0
LINE
  8
0
 10
2.87498
 20
51.4175
 11
2.95203
 21
51.3765
  0
LINE
  8
0
 10
2.95203
 20
51.3765
 11
3.03174
 21
51.341
  0
LINE
  8
0
 10
3.03174
 20
51.341
 11
3.11372
 21
51.3112
  0
LINE
  8
0
 10
3.11372
 20
51.3112
 11
3.19759
 21
51.2871
  0
LINE
  8
0
 10
3.19759
 20
51.2871
 11
3.28293
 21
51.269
  0
LINE
  8
0
 10
3.28293
 20
51.269
 11
3.36934
 21
51.2568
  0
LINE
  8
0
 10
3.36934
 20
51.2568
 11
3.45638
 21
51.2507
  0
LINE
  8
0
 10
3.45638
 20
51.2507
 11
3.54361
 21
51.2507
  0
LINE
  8
0
 10
3.54361
 20
51.2507
 11
3.63065
 21
51.2568
  0
LINE
  8
0
 10
61.6306
 20
51.2568
 11
61.7171
 21
51.269
  0
LINE
  8
0
 10
61.7171
 20
51.269
 11
61.8024
 21
51.2871
  0
LINE
  8
0
 10
61.8024
 20
51.2871
 11
61.8863
 21
51.3112
  0
LINE
  8
0
 10
61.8863
 20
51.3112
 11
61.9682
 21
51.341
  0
LINE
  8
0
 10
61.9682
 20
51.341
 11
62.048
 21
51.3765
  0
LINE
  8
0
 10
62.048
 20
51.3765
 11
62.125
 21
51.4175
  0
LINE
  8
0
 10
62.125
 20
51.4175
 11
62.199
 21
51.4637
  0
LINE
  8
0
 10
62.199
 20
51.4637
 11
62.2696
 21
51.515
  0
LINE
  8
0
 10
62.2696
 20
51.515
 11
62.3364
 21
51.5711
  0
LINE
  8
0
 10
62.3364
 20
51.5711
 11
62.3992
 21
51.6317
  0
LINE
  8
0
 10
62.3992
 20
51.6317
 11
62.4576
 21
51.6965
  0
LINE
  8
0
 10
62.4576
 20
51.6965
 11
62.5113
 21
51.7653
  0
LINE
  8
0
 10
62.5113
 20
51.7653
 11
62.5601
 21
51.8376
  0
LINE
  8
0
 10
62.5601
 20
51.8376
 11
62.6037
 21
51.9131
  0
LINE
  8
0
 10
62.6037
 20
51.9131
 11
62.6419
 21
51.9916
  0
LINE
  8
0
 10
62.6419
 20
51.9916
 11
62.6746
 21
52.0725
  0
LINE
  8
0
 10
62.6746
 20
52.0725
 11
62.7016
 21
52.1554
  0
LINE
  8
0
 10
62.7016
 20
52.1554
 11
62.7227
 21
52.2401
  0
LINE
  8
0
 10
62.7227
 20
52.2401
 11
62.7378
 21
52.326
  0
LINE
  8
0
 10
62.7378
 20
52.326
 11
62.7469
 21
52.4128
  0
LINE
  8
0
 10
62.7469
 20
52.4128
 11
62.75
 21
52.5
  0
LINE
  8
0
 10
62.75
 20
52.5
 11
62.7469
 21
52.5872
  0
LINE
  8
0
 10
62.7469
 20
52.5872
 11
62.7378
 21
52.674
  0
LINE
  8
0
 10
62.7378
 20
52.674
 11
62.7227
 21
52.7599
  0
LINE
  8
0
 10
62.7227
 20
52.7599
 11
62.7016
 21
52.8445
  0
LINE
  8
0
 10
62.7016
 20
52.8445
 11
62.6746
 21
52.9275
  0
LINE
  8
0
 10
62.6746
 20
52.9275
 11
62.6419
 21
53.0084
  0
LINE
  8
0
 10
62.6419
 20
53.0084
 11
62.6037
 21
53.0868
  0
LINE
  8
0
 10
62.6037
 20
53.0868
 11
62.5601
 21
53.1624
  0
LINE
  8
0
 10
62.5601
 20
53.1624
 11
62.5113
 21
53.2347
  0
LINE
  8
0
 10
62.5113
 20
53.2347
 11
62.4576
 21
53.3035
  0
LINE
  8
0
 10
62.4576
 20
53.3035
 11
62.3992
 21
53.3683
  0
LINE
  8
0
 10
62.3992
 20
53.3683
 11
62.3364
 21
53.4289
  0
LINE
  8
0
 10
62.3364
 20
53.4289
 11
62.2696
 21
53.485
  0
LINE
  8
0
 10
62.2696
 20
53.485
 11
62.199
 21
53.5363
  0
LINE
  8
0
 10
62.199
 20
53.5363
 11
62.125
 21
53.5825
  0
LINE
  8
0
 10
62.125
 20
53.5825
 11
62.048
 21
53.6235
  0
LINE
  8
0
 10
62.048
 20
53.6235
 11
61.9682
 21
53.659
  0
LINE
  8
0
 10
61.9682
 20
53.659
 11
61.8863
 21
53.6888
  0
LINE
  8
0
 10
61.8863
 20
53.6888
 11
61.8024
 21
53.7129
  0
LINE
  8
0
 10
61.8024
 20
53.7129
 11
61.7171
 21
53.731
  0
LINE
  8
0
 10
61.7171
 20
53.731
 11
61.6306
 21
53.7431
  0
LINE
  8
0
 10
61.6306
 20
53.7431
 11
61.5436
 21
53.7492
  0
LINE
  8
0
 10
61.5436
 20
53.7492
 11
61.4564
 21
53.7492
  0
LINE
  8
0
 10
61.4564
 20
53.7492
 11
61.3693
 21
53.7431
  0
LINE
  8
0
 10
61.3693
 20
53.7431
 11
61.2829
 21
53.731
  0
LINE
  8
0
 10
61.2829
 20
53.731
 11
61.1976
 21
53.7129
  0
LINE
  8
0
 10
61.1976
 20
53.7129
 11
61.1137
 21
53.6888
  0
LINE
  8
0
 10
61.1137
 20
53.6888
 11
61.0317
 21
53.659
  0
LINE
  8
0
 10
61.0317
 20
53.659
 11
60.952
 21
53.6235
  0
LINE
  8
0
 10
60.952
 20
53.6235
 11
60.875
 21
53.5825
  0
LINE
  8
0
 10
60.875
 20
53.5825
 11
60.801
 21
53.5363
  0
LINE
  8
0
 10
60.801
 20
53.5363
 11
60.7304
 21
53.485
  0
LINE
  8
0
 10
60.7304
 20
53.485
 11
60.6636
 21
53.4289
  0
LINE
  8
0
 10
60.6636
 20
53.4289
 11
60.6008
 21
53.3683
  0
LINE
  8
0
 10
60.6008
 20
53.3683
 11
60.5424
 21
53.3035
  0
LINE
  8
0
 10
60.5424
 20
53.3035
 11
60.4887
 21
53.2347
  0
LINE
  8
0
 10
60.4887
 20
53.2347
 11
60.4399
 21
53.1624
  0
LINE
  8
0
 10
60.4399
 20
53.1624
 11
60.3963
 21
53.0868
  0
LINE
  8
0
 10
60.3963
 20
53.0868
 11
60.3581
 21
53.0084
  0
LINE
  8
0
 10
60.3581
 20
53.0084
 11
60.3254
 21
52.9275
  0
LINE
  8
0
 10
60.3254
 20
52.9275
 11
60.2984
 21
52.8445
  0
LINE
  8
0
 10
60.2984
 20
52.8445
 11
60.2773
 21
52.7599
  0
LINE
  8
0
 10
60.2773
 20
52.7599
 11
60.2622
 21
52.674
  0
LINE
  8
0
 10
60.2622
 20
52.674
 11
60.253
 21
52.5872
  0
LINE
  8
0
 10
60.253
 20
52.5872
 11
60.25
 21
52.5
  0
LINE
  8
0
 10
60.25
 20
52.5
 11
60.253
 21
52.4128
  0
LINE
  8
0
 10
60.253
 20
52.4128
 11
60.2622
 21
52.326
  0
LINE
  8
0
 10
60.2622
 20
52.326
 11
60.2773
 21
52.2401
  0
LINE
  8
0
 10
60.2773
 20
52.2401
 11
60.2984
 21
52.1554
  0
LINE
  8
0
 10
60.2984
 20
52.1554
 11
60.3254
 21
52.0725
  0
LINE
  8
0
 10
60.3254
 20
52.0725
 11
60.3581
 21
51.9916
  0
LINE
  8
0
 10
60.3581
 20
51.9916
 11
60.3963
 21
51.9131
  0
LINE
  8
0
 10
60.3963
 20
51.9131
 11
60.4399
 21
51.8376
  0
LINE
  8
0
 10
60.4399
 20
51.8376
 11
60.4887
 21
51.7653
  0
LINE
  8
0
 10
60.4887
 20
51.7653
 11
60.5424
 21
51.6965
  0
LINE
  8
0
 10
60.5424
 20
51.6965
 11
60.6008
 21
51.6317
  0
LINE
  8
0
 10
60.6008
 20
51.6317
 11
60.6636
 21
51.5711
  0
LINE
  8
0
 10
60.6636
 20
51.5711
 11
60.7304
 21
51.515
  0
LINE
  8
0
 10
60.7304
 20
51.515
 11
60.801
 21
51.4637
  0
LINE
  8
0
 10
60.801
 20
51.4637
 11
60.875
 21
51.4175
  0
LINE
  8
0
 10
60.875
 20
51.4175
 11
60.952
 21
51.3765
  0
LINE
  8
0
 10
60.952
 20
51.3765
 11
61.0317
 21
51.341
  0
LINE
  8
0
 10
61.0317
 20
51.341
 11
61.1137
 21
51.3112
  0
LINE
  8
0
 10
61.1137
 20
51.3112
 11
61.1976
 21
51.2871
  0
LINE
  8
0
 10
61.1976
 20
51.2871
 11
61.2829
 21
51.269
  0
LINE
  8
0
 10
61.2829
 20
51.269
 11
61.3693
 21
51.2568
  0
LINE
  8
0
 10
61.3693
 20
51.2568
 11
61.4564
 21
51.2507
  0
LINE
  8
0
 10
61.4564
 20
51.2507
 11
61.5436
 21
51.2507
  0
LINE
  8
0
 10
61.5436
 20
51.2507
 11
61.6306
 21
51.2568
  0
LINE
  8
0
 10
3.63065
 20
2.25684
 11
3.71706
 21
2.26898
  0
LINE
  8
0
 10
3.71706
 20
2.26898
 11
3.8024
 21
2.28712
  0
LINE
  8
0
 10
3.8024
 20
2.28712
 11
3.88626
 21
2.31117
  0
LINE
  8
0
 10
3.88626
 20
2.31117
 11
3.96825
 21
2.34102
  0
LINE
  8
0
 10
3.96825
 20
2.34102
 11
4.04796
 21
2.3765
  0
LINE
  8
0
 10
4.04796
 20
2.3765
 11
4.125
 21
2.41747
  0
LINE
  8
0
 10
4.125
 20
2.41747
 11
4.19899
 21
2.4637
  0
LINE
  8
0
 10
4.19899
 20
2.4637
 11
4.26956
 21
2.51498
  0
LINE
  8
0
 10
4.26956
 20
2.51498
 11
4.33641
 21
2.57106
  0
LINE
  8
0
 10
4.33641
 20
2.57106
 11
4.39917
 21
2.63167
  0
LINE
  8
0
 10
4.39917
 20
2.63167
 11
4.45755
 21
2.6965
  0
LINE
  8
0
 10
4.45755
 20
2.6965
 11
4.51126
 21
2.76526
  0
LINE
  8
0
 10
4.51126
 20
2.76526
 11
4.56006
 21
2.8376
  0
LINE
  8
0
 10
4.56006
 20
2.8376
 11
4.60368
 21
2.91315
  0
LINE
  8
0
 10
4.60368
 20
2.91315
 11
4.64192
 21
2.99158
  0
LINE
  8
0
 10
4.64192
 20
2.99158
 11
4.67461
 21
3.07246
  0
LINE
  8
0
 10
4.67461
 20
3.07246
 11
4.70157
 21
3.15544
  0
LINE
  8
0
 10
4.70157
 20
3.15544
 11
4.72267
 21
3.2401
  0
LINE
  8
0
 10
4.72267
 20
3.2401
 11
4.73782
 21
3.32602
  0
LINE
  8
0
 10
4.73782
 20
3.32602
 11
4.74695
 21
3.4128
  0
LINE
  8
0
 10
4.74695
 20
3.4128
 11
4.75
 21
3.5
  0
LINE
  8
0
 10
4.75
 20
3.5
 11
4.74695
 21
3.58719
  0
LINE
  8
0
 10
4.74695
 20
3.58719
 11
4.73782
 21
3.67397
  0
LINE
  8
0
 10
4.73782
 20
3.67397
 11
4.72267
 21
3.75989
  0
LINE
  8
0
 10
4.72267
 20
3.75989
 11
4.70157
 21
3.84454
  0
LINE
  8
0
 10
4.70157
 20
3.84454
 11
4.67461
 21
3.92752
  0
LINE
  8
0
 10
4.67461
 20
3.92752
 11
4.64192
 21
4.00841
  0
LINE
  8
0
 10
4.64192
 20
4.00841
 11
4.60368
 21
4.08684
  0
LINE
  8
0
 10
4.60368
 20
4.08684
 11
4.56006
 21
4.16238
  0
LINE
  8
0
 10
4.56006
 20
4.16238
 11
4.51126
 21
4.23473
  0
LINE
  8
0
 10
4.51126
 20
4.23473
 11
4.45755
 21
4.30348
  0
LINE
  8
0
 10
4.45755
 20
4.30348
 11
4.39917
 21
4.36832
  0
LINE
  8
0
 10
4.39917
 20
4.36832
 11
4.33641
 21
4.42892
  0
LINE
  8
0
 10
4.33641
 20
4.42892
 11
4.26956
 21
4.485
  0
LINE
  8
0
 10
4.26956
 20
4.485
 11
4.19899
 21
4.53629
  0
LINE
  8
0
 10
4.19899
 20
4.53629
 11
4.125
 21
4.58252
  0
LINE
  8
0
 10
4.125
 20
4.58252
 11
4.04796
 21
4.62349
  0
LINE
  8
0
 10
4.04796
 20
4.62349
 11
3.96825
 21
4.65897
  0
LINE
  8
0
 10
3.96825
 20
4.65897
 11
3.88626
 21
4.68881
  0
LINE
  8
0
 10
3.88626
 20
4.68881
 11
3.8024
 21
4.71286
  0
LINE
  8
0
 10
3.8024
 20
4.71286
 11
3.71706
 21
4.731
  0
LINE
  8
0
 10
3.71706
 20
4.731
 11
3.63065
 21
4.74315
  0
LINE
  8
0
 10
3.63065
 20
4.74315
 11
3.54361
 21
4.74924
  0
LINE
  8
0
 10
3.54361
 20
4.74924
 11
3.45638
 21
4.74924
  0
LINE
  8
0
 10
3.45638
 20
4.74924
 11
3.36934
 21
4.74315
  0
LINE
  8
0
 10
3.36934
 20
4.74315
 11
3.28293
 21
4.731
  0
LINE
  8
0
 10
3.28293
 20
4.731
 11
3.19759
 21
4.71286
  0
LINE
  8
0
 10
3.19759
 20
4.71286
 11
3.11372
 21
4.68881
  0
LINE
  8
0
 10
3.11372
 20
4.68881
 11
3.03174
 21
4.65897
  0
LINE
  8
0
 10
3.03174
 20
4.65897
 11
2.95203
 21
4.62349
  0
LINE
  8
0
 10
2.95203
 20
4.62349
 11
2.875
 21
4.58252
  0
LINE
  8
0
 10
2.875
 20
4.58252
 11
2.80099
 21
4.53629
  0
LINE
  8
0
 10
2.80099
 20
4.53629
 11
2.73042
 21
4.485
  0
LINE
  8
0
 10
2.73042
 20
4.485
 11
2.66357
 21
4.42892
  0
LINE
  8
0
 10
2.66357
 20
4.42892
 11
2.60081
 21
4.36832
  0
LINE
  8
0
 10
2.60081
 20
4.36832
 11
2.54243
 21
4.30348
  0
LINE
  8
0
 10
2.54243
 20
4.30348
 11
2.48872
 21
4.23473
  0
LINE
  8
0
 10
2.48872
 20
4.23473
 11
2.43993
 21
4.16238
  0
LINE
  8
0
 10
2.43993
 20
4.16238
 11
2.3963
 21
4.08684
  0
LINE
  8
0
 10
2.3963
 20
4.08684
 11
2.35806
 21
4.00841
  0
LINE
  8
0
 10
2.35806
 20
4.00841
 11
2.32538
 21
3.92752
  0
LINE
  8
0
 10
2.32538
 20
3.92752
 11
2.29842
 21
3.84454
  0
LINE
  8
0
 10
2.29842
 20
3.84454
 11
2.27731
 21
3.75989
  0
LINE
  8
0
 10
2.27731
 20
3.75989
 11
2.26216
 21
3.67397
  0
LINE
  8
0
 10
2.26216
 20
3.67397
 11
2.25304
 21
3.58719
  0
LINE
  8
0
 10
2.25304
 20
3.58719
 11
2.25
 21
3.5
  0
LINE
  8
0
 10
2.25
 20
3.5
 11
2.25304
 21
3.4128
  0
LINE
  8
0
 10
2.25304
 20
3.4128
 11
2.26216
 21
3.32602
  0
LINE
  8
0
 10
2.26216
 20
3.32602
 11
2.27731
 21
3.2401
  0
LINE
  8
0
 10
2.27731
 20
3.2401
 11
2.29842
 21
3.15544
  0
LINE
  8
0
 10
2.29842
 20
3.15544
 11
2.32538
 21
3.07246
  0
LINE
  8
0
 10
2.32538
 20
3.07246
 11
2.35806
 21
2.99158
  0
LINE
  8
0
 10
2.35806
 20
2.99158
 11
2.3963
 21
2.91315
  0
LINE
  8
0
 10
2.3963
 20
2.91315
 11
2.43993
 21
2.8376
  0
LINE
  8
0
 10
2.43993
 20
2.8376
 11
2.48872
 21
2.76526
  0
LINE
  8
0
 10
2.48872
 20
2.76526
 11
2.54243
 21
2.6965
  0
LINE
  8
0
 10
2.54243
 20
2.6965
 11
2.60081
 21
2.63167
  0
LINE
  8
0
 10
2.60081
 20
2.63167
 11
2.66357
 21
2.57106
  0
LINE
  8
0
 10
2.66357
 20
2.57106
 11
2.73042
 21
2.51498
  0
LINE
  8
0
 10
2.73042
 20
2.51498
 11
2.80099
 21
2.4637
  0
LINE
  8
0
 10
2.80099
 20
2.4637
 11
2.87498
 21
2.41747
  0
LINE
  8
0
 10
2.87498
 20
2.41747
 11
2.95203
 21
2.3765
  0
LINE
  8
0
 10
2.95203
 20
2.3765
 11
3.03174
 21
2.34102
  0
LINE
  8
0
 10
3.03174
 20
2.34102
 11
3.11372
 21
2.31117
  0
LINE
  8
0
 10
3.11372
 20
2.31117
 11
3.19759
 21
2.28712
  0
LINE
  8
0
 10
3.19759
 20
2.28712
 11
3.28293
 21
2.26898
  0
LINE
  8
0
 10
3.28293
 20
2.26898
 11
3.36934
 21
2.25684
  0
LINE
  8
0
 10
3.36934
 20
2.25684
 11
3.45638
 21
2.25075
  0
LINE
  8
0
 10
3.45638
 20
2.25075
 11
3.54361
 21
2.25075
  0
LINE
  8
0
 10
3.54361
 20
2.25075
 11
3.63065
 21
2.25684
  0
LINE
  8
0
 10
61.6306
 20
2.25684
 11
61.7171
 21
2.26898
  0
LINE
  8
0
 10
61.7171
 20
2.26898
 11
61.8024
 21
2.28712
  0
LINE
  8
0
 10
61.8024
 20
2.28712
 11
61.8863
 21
2.31117
  0
LINE
  8
0
 10
61.8863
 20
2.31117
 11
61.9682
 21
2.34102
  0
LINE
  8
0
 10
61.9682
 20
2.34102
 11
62.048
 21
2.3765
  0
LINE
  8
0
 10
62.048
 20
2.3765
 11
62.125
 21
2.41747
  0
LINE
  8
0
 10
62.125
 20
2.41747
 11
62.199
 21
2.4637
  0
LINE
  8
0
 10
62.199
 20
2.4637
 11
62.2696
 21
2.51498
  0
LINE
  8
0
 10
62.2696
 20
2.51498
 11
62.3364
 21
2.57106
  0
LINE
  8
0
 10
62.3364
 20
2.57106
 11
62.3992
 21
2.63167
  0
LINE
  8
0
 10
62.3992
 20
2.63167
 11
62.4576
 21
2.6965
  0
LINE
  8
0
 10
62.4576
 20
2.6965
 11
62.5113
 21
2.76526
  0
LINE
  8
0
 10
62.5113
 20
2.76526
 11
62.5601
 21
2.8376
  0
LINE
  8
0
 10
62.5601
 20
2.8376
 11
62.6037
 21
2.91315
  0
LINE
  8
0
 10
62.6037
 20
2.91315
 11
62.6419
 21
2.99158
  0
LINE
  8
0
 10
62.6419
 20
2.99158
 11
62.6746
 21
3.07246
  0
LINE
  8
0
 10
62.6746
 20
3.07246
 11
62.7016
 21
3.15544
  0
LINE
  8
0
 10
62.7016
 20
3.15544
 11
62.7227
 21
3.2401
  0
LINE
  8
0
 10
62.7227
 20
3.2401
 11
62.7378
 21
3.32602
  0
LINE
  8
0
 10
62.7378
 20
3.32602
 11
62.7469
 21
3.4128
  0
LINE
  8
0
 10
62.7469
 20
3.4128
 11
62.75
 21
3.5
  0
LINE
  8
0
 10
62.75
 20
3.5
 11
62.7469
 21
3.58719
  0
LINE
  8
0
 10
62.7469
 20
3.58719
 11
62.7378
 21
3.67397
  0
LINE
  8
0
 10
62.7378
 20
3.67397
 11
62.7227
 21
3.75989
  0
LINE
  8
0
 10
62.7227
 20
3.75989
 11
62.7016
 21
3.84454
  0
LINE
  8
0
 10
62.7016
 20
3.84454
 11
62.6746
 21
3.92752
  0
LINE
  8
0
 10
62.6746
 20
3.92752
 11
62.6419
 21
4.00841
  0
LINE
  8
0
 10
62.6419
 20
4.00841
 11
62.6037
 21
4.08684
  0
LINE
  8
0
 10
62.6037
 20
4.08684
 11
62.5601
 21
4.16238
  0
LINE
  8
0
 10
62.5601
 20
4.16238
 11
62.5113
 21
4.23473
  0
LINE
  8
0
 10
62.5113
 20
4.23473
 11
62.4576
 21
4.30348
  0
LINE
  8
0
 10
62.4576
 20
4.30348
 11
62.3992
 21
4.36832
  0
LINE
  8
0
 10
62.3992
 20
4.36832
 11
62.3364
 21
4.42892
  0
LINE
  8
0
 10
62.3364
 20
4.42892
 11
62.2696
 21
4.485
  0
LINE
  8
0
 10
62.2696
 20
4.485
 11
62.199
 21
4.53629
  0
LINE
  8
0
 10
62.199
 20
4.53629
 11
62.125
 21
4.58252
  0
LINE
  8
0
 10
62.125
 20
4.58252
 11
62.048
 21
4.62349
  0
LINE
  8
0
 10
62.048
 20
4.62349
 11
61.9682
 21
4.65897
  0
LINE
  8
0
 10
61.9682
 20
4.65897
 11
61.8863
 21
4.68881
  0
LINE
  8
0
 10
61.8863
 20
4.68881
 11
61.8024
 21
4.71286
  0
LINE
  8
0
 10
61.8024
 20
4.71286
 11
61.7171
 21
4.731
  0
LINE
  8
0
 10
61.7171
 20
4.731
 11
61.6306
 21
4.74315
  0
LINE
  8
0
 10
61.6306
 20
4.74315
 11
61.5436
 21
4.74924
  0
LINE
  8
0
 10
61.5436
 20
4.74924
 11
61.4564
 21
4.74924
  0
LINE
  8
0
 10
61.4564
 20
4.74924
 11
61.3693
 21
4.74315
  0
LINE
  8
0
 10
61.3693
 20
4.74315
 11
61.2829
 21
4.731
  0
LINE
  8
0
 10
61.2829
 20
4.731
 11
61.1976
 21
4.71286
  0
LINE
  8
0
 10
61.1976
 20
4.71286
 11
61.1137
 21
4.68881
  0
LINE
  8
0
 10
61.1137
 20
4.68881
 11
61.0317
 21
4.65897
  0
LINE
  8
0
 10
61.0317
 20
4.65897
 11
60.952
 21
4.62349
  0
LINE
  8
0
 10
60.952
 20
4.62349
 11
60.875
 21
4.58252
  0
LINE
  8
0
 10
60.875
 20
4.58252
 11
60.801
 21
4.53629
  0
LINE
  8
0
 10
60.801
 20
4.53629
 11
60.7304
 21
4.485
  0
LINE
  8
0
 10
60.7304
 20
4.485
 11
60.6636
 21
4.42892
  0
LINE
  8
0
 10
60.6636
 20
4.42892
 11
60.6008
 21
4.36832
  0
LINE
  8
0
 10
60.6008
 20
4.36832
 11
60.5424
 21
4.30348
  0
LINE
  8
0
 10
60.5424
 20
4.30348
 11
60.4887
 21
4.23473
  0
LINE
  8
0
 10
60.4887
 20
4.23473
 11
60.4399
 21
4.16238
  0
LINE
  8
0
 10
60.4399
 20
4.16238
 11
60.3963
 21
4.08684
  0
LINE
  8
0
 10
60.3963
 20
4.08684
 11
60.3581
 21
4.00841
  0
LINE
  8
0
 10
60.3581
 20
4.00841
 11
60.3254
 21
3.92752
  0
LINE
  8
0
 10
60.3254
 20
3.92752
 11
60.2984
 21
3.84454
  0
LINE
  8
0
 10
60.2984
 20
3.84454
 11
60.2773
 21
3.75989
  0
LINE
  8
0
 10
60.2773
 20
3.75989
 11
60.2622
 21
3.67397
  0
LINE
  8
0
 10
60.2622
 20
3.67397
 11
60.253
 21
3.58719
  0
LINE
  8
0
 10
60.253
 20
3.58719
 11
60.25
 21
3.5
  0
LINE
  8
0
 10
60.25
 20
3.5
 11
60.253
 21
3.4128
  0
LINE
  8
0
 10
60.253
 20
3.4128
 11
60.2622
 21
3.32602
  0
LINE
  8
0
 10
60.2622
 20
3.32602
 11
60.2773
 21
3.2401
  0
LINE
  8
0
 10
60.2773
 20
3.2401
 11
60.2984
 21
3.15544
  0
LINE
  8
0
 10
60.2984
 20
3.15544
 11
60.3254
 21
3.07246
  0
LINE
  8
0
 10
60.3254
 20
3.07246
 11
60.3581
 21
2.99158
  0
LINE
  8
0
 10
60.3581
 20
2.99158
 11
60.3963
 21
2.91315
  0
LINE
  8
0
 10
60.3963
 20
2.91315
 11
60.4399
 21
2.8376
  0
LINE
  8
0
 10
60.4399
 20
2.8376
 11
60.4887
 21
2.76526
  0
LINE
  8
0
 10
60.4887
 20
2.76526
 11
60.5424
 21
2.6965
  0
LINE
  8
0
 10
60.5424
 20
2.6965
 11
60.6008
 21
2.63167
  0
LINE
  8
0
 10
60.6008
 20
2.63167
 11
60.6636
 21
2.57106
  0
LINE
  8
0
 10
60.6636
 20
2.57106
 11
60.7304
 21
2.51498
  0
LINE
  8
0
 10
60.7304
 20
2.51498
 11
60.801
 21
2.4637
  0
LINE
  8
0
 10
60.801
 20
2.4637
 11
60.875
 21
2.41747
  0
LINE
  8
0
 10
60.875
 20
2.41747
 11
60.952
 21
2.3765
  0
LINE
  8
0
 10
60.952
 20
2.3765
 11
61.0317
 21
2.34102
  0
LINE
  8
0
 10
61.0317
 20
2.34102
 11
61.1137
 21
2.31117
  0
LINE
  8
0
 10
61.1137
 20
2.31117
 11
61.1976
 21
2.28712
  0
LINE
  8
0
 10
61.1976
 20
2.28712
 11
61.2829
 21
2.26898
  0
LINE
  8
0
 10
61.2829
 20
2.26898
 11
61.3693
 21
2.25684
  0
LINE
  8
0
 10
61.3693
 20
2.25684
 11
61.4564
 21
2.25075
  0
LINE
  8
0
 10
61.4564
 20
2.25075
 11
61.5436
 21
2.25075
  0
LINE
  8
0
 10
61.5436
 20
2.25075
 11
61.6306
 21
2.25684
  0
ENDSEC
  0
SECTION
  2
OBJECTS
  0
DICTIONARY
  0
ENDSEC
  0
EOF
