<?xml version="1.0" standalone="no"?>
<!DOCTYPE svg PUBLIC "-//W3C//DTD SVG 1.1//EN" "http://www.w3.org/Graphics/SVG/1.1/DTD/svg11.dtd">
<svg width="95" height="63" viewBox="-5 -58 95 63" xmlns="http://www.w3.org/2000/svg" version="1.1">
<title>OpenSCAD Model</title>
<path d="
M 82.3311,4.98875 L 82.4183,4.98175 L 82.7135,4.94856 L 83.0221,4.89413 L 83.1076,4.87505 L 83.395,4.80118
 L 83.6937,4.7041 L 83.7753,4.67343 L 84.0497,4.56026 L 84.3317,4.4227 L 84.4085,4.38084 L 84.6639,4.23093
 L 84.925,4.05481 L 84.9947,4.00305 L 85.2267,3.81914 L 85.4607,3.60846 L 85.5227,3.54732 L 85.7274,3.3322
 L 85.9289,3.09201 L 85.9821,3.02254 L 86.1545,2.78157 L 86.3213,2.51476 L 86.364,2.43886 L 86.5012,2.17641
 L 86.6293,1.8887 L 86.661,1.80777 L 86.7604,1.52838 L 86.8469,1.22679 L 86.8672,1.14159 L 86.9268,0.850967
 L 86.9705,0.539825 L 86.979,0.44873 L 86.9947,0.21373 L 86.9979,0.138657 L 87,-0 L 87,-19
 L 88.0525,-19.0009 L 88.1917,-19.0094 L 88.3299,-19.0276 L 88.4667,-19.0554 L 88.6015,-19.0928 L 88.733,-19.1394
 L 88.861,-19.1951 L 88.9847,-19.2594 L 89.1035,-19.3322 L 89.2174,-19.4135 L 89.3252,-19.5024 L 89.4265,-19.5985
 L 89.5203,-19.7009 L 89.6076,-19.8105 L 89.6867,-19.9256 L 89.7573,-20.0455 L 89.8199,-20.171 L 89.8732,-20.2998
 L 89.9173,-20.4318 L 89.9524,-20.5675 L 89.9778,-20.7046 L 89.9827,-20.7392 L 89.9952,-20.869 L 90,-21
 L 89.9988,-53.0698 L 89.9863,-53.3659 L 89.9534,-53.6789 L 89.9404,-53.7648 L 89.8869,-54.0562 L 89.8108,-54.3614
 L 89.7859,-54.445 L 89.6922,-54.7265 L 89.5744,-55.0178 L 89.5383,-55.0969 L 89.4063,-55.3626 L 89.2494,-55.6344
 L 89.2022,-55.7081 L 89.0343,-55.9532 L 88.8416,-56.2 L 88.7844,-56.2666 L 88.5842,-56.4858 L 88.3581,-56.7041
 L 88.293,-56.7615 L 88.0645,-56.9504 L 87.8105,-57.135 L 87.7375,-57.1832 L 87.4845,-57.3387 L 87.2077,-57.4859
 L 87.1287,-57.5235 L 86.8563,-57.6423 L 86.5615,-57.7496 L 86.4784,-57.7757 L 86.1929,-57.8553 L 85.8853,-57.9207
 L 85.7993,-57.935 L 85.5051,-57.9741 L 85.2137,-57.9947 L 85.1387,-57.9979 L 85,-58 L -0.069809,-57.9988
 L -0.365875,-57.9863 L -0.678879,-57.9534 L -0.764832,-57.9404 L -1.05624,-57.8869 L -1.36143,-57.8108 L -1.44502,-57.7859
 L -1.7265,-57.6922 L -2.01782,-57.5744 L -2.09688,-57.5383 L -2.36258,-57.4063 L -2.63435,-57.2494 L -2.70815,-57.2022
 L -2.95325,-57.0343 L -3.19995,-56.8416 L -3.2666,-56.7844 L -3.48579,-56.5842 L -3.70409,-56.3581 L -3.76149,-56.293
 L -3.95044,-56.0645 L -4.13503,-55.8105 L -4.18315,-55.7375 L -4.33873,-55.4845 L -4.48587,-55.2077 L -4.52345,-55.1287
 L -4.64235,-54.8563 L -4.7496,-54.5615 L -4.77567,-54.4784 L -4.85533,-54.1929 L -4.92072,-53.8853 L -4.93495,-53.7993
 L -4.97414,-53.5051 L -4.99474,-53.2137 L -4.99788,-53.1387 L -5,-53 L -4.99878,-2.93019 L -4.98633,-2.63412
 L -4.95343,-2.32112 L -4.94041,-2.23517 L -4.88689,-1.94376 L -4.81081,-1.63857 L -4.78589,-1.55498 L -4.69217,-1.2735
 L -4.57445,-0.982178 L -4.53825,-0.903122 L -4.4063,-0.637421 L -4.2494,-0.365646 L -4.20221,-0.291855 L -4.03429,-0.0467529
 L -3.84155,0.199951 L -3.78444,0.266602 L -3.5842,0.485794 L -3.35812,0.704086 L -3.29298,0.76149 L -3.0645,0.950439
 L -2.81047,1.13503 L -2.7375,1.18315 L -2.48448,1.33873 L -2.20773,1.48587 L -2.12866,1.52345 L -1.85631,1.64235
 L -1.56154,1.7496 L -1.47839,1.77567 L -1.19292,1.85533 L -0.88533,1.92072 L -0.799316,1.93495 L -0.505096,1.97414
 L -0.21373,1.99474 L -0.138657,1.99788 L 0,2 L 21,2 L 21.0009,3.05246 L 21.0094,3.19167
 L 21.0276,3.32988 L 21.0554,3.46667 L 21.0928,3.60152 L 21.1394,3.73296 L 21.1951,3.86104 L 21.2594,3.98466
 L 21.3322,4.1035 L 21.4135,4.21744 L 21.5024,4.32521 L 21.5985,4.42653 L 21.7009,4.52034 L 21.8105,4.60757
 L 21.9256,4.68666 L 22.0455,4.75731 L 22.171,4.81985 L 22.2998,4.87317 L 22.4318,4.91734 L 22.5675,4.95244
 L 22.7046,4.97783 L 22.7392,4.98268 L 22.869,4.99519 L 23,5 L 82,5 z
M 23,3.5 L 22.9477,3.49725 L 22.9132,3.4924 L 22.879,3.48515 L 22.8455,3.47552 L 22.8127,3.46359
 L 22.7808,3.4494 L 22.75,3.43301 L 22.7204,3.41452 L 22.6922,3.39401 L 22.6654,3.37157 L 22.6403,3.34734
 L 22.617,3.3214 L 22.5955,3.2939 L 22.576,3.26495 L 22.5585,3.23474 L 22.5432,3.20337 L 22.5302,3.17101
 L 22.5194,3.13782 L 22.5109,3.10396 L 22.5049,3.06958 L 22.5012,3.03488 L 22.5,3 L 22.5,0.5
 L 0,0.5 L -0.113449,0.498093 L -0.34845,0.482346 L -0.383179,0.478699 L -0.590546,0.449554 L -0.624908,0.443497
 L -0.829727,0.399963 L -0.863602,0.39151 L -1.06488,0.333786 L -1.09804,0.323013 L -1.29482,0.251404 L -1.32721,0.238327
 L -1.51849,0.153152 L -1.54982,0.137863 L -1.73471,0.039566 L -1.76498,0.0220947 L -1.94257,-0.0888824 L -1.97147,-0.108383
 L -2.14087,-0.231461 L -2.16838,-0.25296 L -2.32878,-0.387558 L -2.35471,-0.410889 L -2.50534,-0.556351 L -2.5296,-0.581467
 L -2.66971,-0.737076 L -2.69212,-0.763809 L -2.82104,-0.928818 L -2.84157,-0.957047 L -2.95866,-1.13065 L -2.97714,-1.16023
 L -3.08185,-1.34157 L -3.09825,-1.37242 L -3.19003,-1.56062 L -3.20422,-1.59248 L -3.28267,-1.78664 L -3.2946,-1.81941
 L -3.35931,-2.01855 L -3.36894,-2.05212 L -3.4196,-2.25531 L -3.42685,-2.28944 L -3.46321,-2.49565 L -3.46808,-2.53023
 L -3.48996,-2.73848 L -3.49239,-2.77327 L -3.49969,-2.98254 L -3.5,-53 L -3.49809,-53.1134 L -3.48235,-53.3484
 L -3.4787,-53.3832 L -3.44955,-53.5905 L -3.4435,-53.6249 L -3.39996,-53.8297 L -3.39151,-53.8636 L -3.33379,-54.0649
 L -3.32301,-54.098 L -3.2514,-54.2948 L -3.23833,-54.3272 L -3.15315,-54.5185 L -3.13786,-54.5498 L -3.03957,-54.7347
 L -3.02209,-54.765 L -2.91112,-54.9426 L -2.89162,-54.9715 L -2.76854,-55.1409 L -2.74704,-55.1684 L -2.61244,-55.3288
 L -2.58911,-55.3547 L -2.44365,-55.5053 L -2.41853,-55.5296 L -2.26292,-55.6697 L -2.23619,-55.6921 L -2.07118,-55.821
 L -2.04295,-55.8416 L -1.86935,-55.9587 L -1.83977,-55.9771 L -1.65843,-56.0818 L -1.62758,-56.0983 L -1.43938,-56.19
 L -1.40752,-56.2042 L -1.21336,-56.2827 L -1.18059,-56.2946 L -0.981445,-56.3593 L -0.947876,-56.3689 L -0.74469,-56.4196
 L -0.710556,-56.4268 L -0.504349,-56.4632 L -0.469772,-56.4681 L -0.26152,-56.49 L -0.22673,-56.4924 L -0.0174561,-56.4997
 L 85,-56.5 L 85.1134,-56.4981 L 85.3484,-56.4823 L 85.3832,-56.4787 L 85.5905,-56.4496 L 85.6249,-56.4435
 L 85.8297,-56.4 L 85.8636,-56.3915 L 86.0649,-56.3338 L 86.098,-56.323 L 86.2948,-56.2514 L 86.3272,-56.2383
 L 86.5185,-56.1532 L 86.5498,-56.1379 L 86.7347,-56.0396 L 86.765,-56.0221 L 86.9426,-55.9111 L 86.9715,-55.8916
 L 87.1409,-55.7685 L 87.1684,-55.747 L 87.3288,-55.6124 L 87.3547,-55.5891 L 87.5053,-55.4436 L 87.5296,-55.4185
 L 87.6697,-55.2629 L 87.6921,-55.2362 L 87.821,-55.0712 L 87.8416,-55.043 L 87.9587,-54.8694 L 87.9771,-54.8398
 L 88.0818,-54.6584 L 88.0983,-54.6276 L 88.19,-54.4394 L 88.2042,-54.4075 L 88.2827,-54.2134 L 88.2946,-54.1806
 L 88.3593,-53.9814 L 88.3689,-53.9479 L 88.4196,-53.7447 L 88.4268,-53.7106 L 88.4632,-53.5043 L 88.4681,-53.4698
 L 88.49,-53.2615 L 88.4924,-53.2267 L 88.4997,-53.0175 L 88.5,-21 L 88.4973,-20.9477 L 88.4924,-20.9132
 L 88.4852,-20.879 L 88.4755,-20.8455 L 88.4636,-20.8127 L 88.4494,-20.7808 L 88.433,-20.75 L 88.4145,-20.7204
 L 88.394,-20.6922 L 88.3716,-20.6654 L 88.3473,-20.6403 L 88.3214,-20.617 L 88.2939,-20.5955 L 88.265,-20.576
 L 88.2347,-20.5585 L 88.2034,-20.5432 L 88.171,-20.5302 L 88.1378,-20.5194 L 88.104,-20.5109 L 88.0696,-20.5049
 L 88.0349,-20.5012 L 88,-20.5 L 85.5,-20.5 L 85.5,-0 L 85.4981,0.113449 L 85.4823,0.34845
 L 85.4787,0.383179 L 85.4496,0.590546 L 85.4435,0.624908 L 85.4,0.829727 L 85.3915,0.863602 L 85.3338,1.06488
 L 85.323,1.09804 L 85.2514,1.29482 L 85.2383,1.32721 L 85.1532,1.51849 L 85.1379,1.54982 L 85.0396,1.73471
 L 85.0221,1.76498 L 84.9111,1.94257 L 84.8916,1.97147 L 84.7685,2.14087 L 84.747,2.16838 L 84.6124,2.32878
 L 84.5891,2.35471 L 84.4436,2.50534 L 84.4185,2.5296 L 84.2629,2.66971 L 84.2362,2.69212 L 84.0712,2.82104
 L 84.043,2.84157 L 83.8694,2.95866 L 83.8398,2.97714 L 83.6584,3.08185 L 83.6276,3.09825 L 83.4394,3.19003
 L 83.4075,3.20422 L 83.2134,3.28267 L 83.1806,3.2946 L 82.9814,3.35931 L 82.9479,3.36894 L 82.7447,3.4196
 L 82.7106,3.42685 L 82.5043,3.46321 L 82.4698,3.46808 L 82.2615,3.48996 L 82.2267,3.49239 L 82,3.5
 z
M 3.63065,-51.2568 L 3.71706,-51.269 L 3.8024,-51.2871 L 3.88626,-51.3112 L 3.96825,-51.341 L 4.04796,-51.3765
 L 4.125,-51.4175 L 4.19899,-51.4637 L 4.26956,-51.515 L 4.33641,-51.5711 L 4.39917,-51.6317 L 4.45755,-51.6965
 L 4.51126,-51.7653 L 4.56006,-51.8376 L 4.60368,-51.9131 L 4.64192,-51.9916 L 4.67461,-52.0725 L 4.70157,-52.1554
 L 4.72267,-52.2401 L 4.73782,-52.326 L 4.74695,-52.4128 L 4.75,-52.5 L 4.74695,-52.5872 L 4.73782,-52.674
 L 4.72267,-52.7599 L 4.70157,-52.8445 L 4.67461,-52.9275 L 4.64192,-53.0084 L 4.60368,-53.0868 L 4.56006,-53.1624
 L 4.51126,-53.2347 L 4.45755,-53.3035 L 4.39917,-53.3683 L 4.33641,-53.4289 L 4.26956,-53.485 L 4.19899,-53.5363
 L 4.125,-53.5825 L 4.04796,-53.6235 L 3.96825,-53.659 L 3.88626,-53.6888 L 3.8024,-53.7129 L 3.71706,-53.731
 L 3.63065,-53.7431 L 3.54361,-53.7492 L 3.45638,-53.7492 L 3.36934,-53.7431 L 3.28293,-53.731 L 3.19759,-53.7129
 L 3.11372,-53.6888 L 3.03174,-53.659 L 2.95203,-53.6235 L 2.875,-53.5825 L 2.80099,-53.5363 L 2.73042,-53.485
 L 2.66357,-53.4289 L 2.60081,-53.3683 L 2.54243,-53.3035 L 2.48872,-53.2347 L 2.43993,-53.1624 L 2.3963,-53.0868
 L 2.35806,-53.0084 L 2.32538,-52.9275 L 2.29842,-52.8445 L 2.27731,-52.7599 L 2.26216,-52.674 L 2.25304,-52.5872
 L 2.25,-52.5 L 2.25304,-52.4128 L 2.26216,-52.326 L 2.27731,-52.2401 L 2.29842,-52.1554 L 2.32538,-52.0725
 L 2.35806,-51.9916 L 2.3963,-51.9131 L 2.43993,-51.8376 L 2.48872,-51.7653 L 2.54243,-51.6965 L 2.60081,-51.6317
 L 2.66357,-51.5711 L 2.73042,-51.515 L 2.80099,-51.4637 L 2.87498,-51.4175 L 2.95203,-51.3765 L 3.03174,-51.341
 L 3.11372,-51.3112 L 3.19759,-51.2871 L 3.28293,-51.269 L 3.36934,-51.2568 L 3.45638,-51.2507 L 3.54361,-51.2507
 z
M 61.6306,-51.2568 L 61.7171,-51.269 L 61.8024,-51.2871 L 61.8863,-51.3112 L 61.9682,-51.341 L 62.048,-51.3765
 L 62.125,-51.4175 L 62.199,-51.4637 L 62.2696,-51.515 L 62.3364,-51.5711 L 62.3992,-51.6317 L 62.4576,-51.6965
 L 62.5113,-51.7653 L 62.5601,-51.8376 L 62.6037,-51.9131 L 62.6419,-51.9916 L 62.6746,-52.0725 L 62.7016,-52.1554
 L 62.7227,-52.2401 L 62.7378,-52.326 L 62.7469,-52.4128 L 62.75,-52.5 L 62.7469,-52.5872 L 62.7378,-52.674
 L 62.7227,-52.7599 L 62.7016,-52.8445 L 62.6746,-52.9275 L 62.6419,-53.0084 L 62.6037,-53.0868 L 62.5601,-53.1624
 L 62.5113,-53.2347 L 62.4576,-53.3035 L 62.3992,-53.3683 L 62.3364,-53.4289 L 62.2696,-53.485 L 62.199,-53.5363
 L 62.125,-53.5825 L 62.048,-53.6235 L 61.9682,-53.659 L 61.8863,-53.6888 L 61.8024,-53.7129 L 61.7171,-53.731
 L 61.6306,-53.7431 L 61.5436,-53.7492 L 61.4564,-53.7492 L 61.3693,-53.7431 L 61.2829,-53.731 L 61.1976,-53.7129
 L 61.1137,-53.6888 L 61.0317,-53.659 L 60.952,-53.6235 L 60.875,-53.5825 L 60.801,-53.5363 L 60.7304,-53.485
 L 60.6636,-53.4289 L 60.6008,-53.3683 L 60.5424,-53.3035 L 60.4887,-53.2347 L 60.4399,-53.1624 L 60.3963,-53.0868
 L 60.3581,-53.0084 L 60.3254,-52.9275 L 60.2984,-52.8445 L 60.2773,-52.7599 L 60.2622,-52.674 L 60.253,-52.5872
 L 60.25,-52.5 L 60.253,-52.4128 L 60.2622,-52.326 L 60.2773,-52.2401 L 60.2984,-52.1554 L 60.3254,-52.0725
 L 60.3581,-51.9916 L 60.3963,-51.9131 L 60.4399,-51.8376 L 60.4887,-51.7653 L 60.5424,-51.6965 L 60.6008,-51.6317
 L 60.6636,-51.5711 L 60.7304,-51.515 L 60.801,-51.4637 L 60.875,-51.4175 L 60.952,-51.3765 L 61.0317,-51.341
 L 61.1137,-51.3112 L 61.1976,-51.2871 L 61.2829,-51.269 L 61.3693,-51.2568 L 61.4564,-51.2507 L 61.5436,-51.2507
 z
M 3.63065,-2.25684 L 3.71706,-2.26898 L 3.8024,-2.28712 L 3.88626,-2.31117 L 3.96825,-2.34102 L 4.04796,-2.3765
 L 4.125,-2.41747 L 4.19899,-2.4637 L 4.26956,-2.51498 L 4.33641,-2.57106 L 4.39917,-2.63167 L 4.45755,-2.6965
 L 4.51126,-2.76526 L 4.56006,-2.8376 L 4.60368,-2.91315 L 4.64192,-2.99158 L 4.67461,-3.07246 L 4.70157,-3.15544
 L 4.72267,-3.2401 L 4.73782,-3.32602 L 4.74695,-3.4128 L 4.75,-3.5 L 4.74695,-3.58719 L 4.73782,-3.67397
 L 4.72267,-3.75989 L 4.70157,-3.84454 L 4.67461,-3.92752 L 4.64192,-4.00841 L 4.60368,-4.08684 L 4.56006,-4.16238
 L 4.51126,-4.23473 L 4.45755,-4.30348 L 4.39917,-4.36832 L 4.33641,-4.42892 L 4.26956,-4.485 L 4.19899,-4.53629
 L 4.125,-4.58252 L 4.04796,-4.62349 L 3.96825,-4.65897 L 3.88626,-4.68881 L 3.8024,-4.71286 L 3.71706,-4.731
 L 3.63065,-4.74315 L 3.54361,-4.74924 L 3.45638,-4.74924 L 3.36934,-4.74315 L 3.28293,-4.731 L 3.19759,-4.71286
 L 3.11372,-4.68881 L 3.03174,-4.65897 L 2.95203,-4.62349 L 2.875,-4.58252 L 2.80099,-4.53629 L 2.73042,-4.485
 L 2.66357,-4.42892 L 2.60081,-4.36832 L 2.54243,-4.30348 L 2.48872,-4.23473 L 2.43993,-4.16238 L 2.3963,-4.08684
 L 2.35806,-4.00841 L 2.32538,-3.92752 L 2.29842,-3.84454 L 2.27731,-3.75989 L 2.26216,-3.67397 L 2.25304,-3.58719
 L 2.25,-3.5 L 2.25304,-3.4128 L 2.26216,-3.32602 L 2.27731,-3.2401 L 2.29842,-3.15544 L 2.32538,-3.07246
 L 2.35806,-2.99158 L 2.3963,-2.91315 L 2.43993,-2.8376 L 2.48872,-2.76526 L 2.54243,-2.6965 L 2.60081,-2.63167
 L 2.66357,-2.57106 L 2.73042,-2.51498 L 2.80099,-2.4637 L 2.87498,-2.41747 L 2.95203,-2.3765 L 3.03174,-2.34102
 L 3.11372,-2.31117 L 3.19759,-2.28712 L 3.28293,-2.26898 L 3.36934,-2.25684 L 3.45638,-2.25075 L 3.54361,-2.25075
 z
M 61.6306,-2.25684 L 61.7171,-2.26898 L 61.8024,-2.28712 L 61.8863,-2.31117 L 61.9682,-2.34102 L 62.048,-2.3765
 L 62.125,-2.41747 L 62.199,-2.4637 L 62.2696,-2.51498 L 62.3364,-2.57106 L 62.3992,-2.63167 L 62.4576,-2.6965
 L 62.5113,-2.76526 L 62.5601,-2.8376 L 62.6037,-2.91315 L 62.6419,-2.99158 L 62.6746,-3.07246 L 62.7016,-3.15544
 L 62.7227,-3.2401 L 62.7378,-3.32602 L 62.7469,-3.4128 L 62.75,-3.5 L 62.7469,-3.58719 L 62.7378,-3.67397
 L 62.7227,-3.75989 L 62.7016,-3.84454 L 62.6746,-3.92752 L 62.6419,-4.00841 L 62.6037,-4.08684 L 62.5601,-4.16238
 L 62.5113,-4.23473 L 62.4576,-4.30348 L 62.3992,-4.36832 L 62.3364,-4.42892 L 62.2696,-4.485 L 62.199,-4.53629
 L 62.125,-4.58252 L 62.048,-4.62349 L 61.9682,-4.65897 L 61.8863,-4.68881 L 61.8024,-4.71286 L 61.7171,-4.731
 L 61.6306,-4.74315 L 61.5436,-4.74924 L 61.4564,-4.74924 L 61.3693,-4.74315 L 61.2829,-4.731 L 61.1976,-4.71286
 L 61.1137,-4.68881 L 61.0317,-4.65897 L 60.952,-4.62349 L 60.875,-4.58252 L 60.801,-4.53629 L 60.7304,-4.485
 L 60.6636,-4.42892 L 60.6008,-4.36832 L 60.5424,-4.30348 L 60.4887,-4.23473 L 60.4399,-4.16238 L 60.3963,-4.08684
 L 60.3581,-4.00841 L 60.3254,-3.92752 L 60.2984,-3.84454 L 60.2773,-3.75989 L 60.2622,-3.67397 L 60.253,-3.58719
 L 60.25,-3.5 L 60.253,-3.4128 L 60.2622,-3.32602 L 60.2773,-3.2401 L 60.2984,-3.15544 L 60.3254,-3.07246
 L 60.3581,-2.99158 L 60.3963,-2.91315 L 60.4399,-2.8376 L 60.4887,-2.76526 L 60.5424,-2.6965 L 60.6008,-2.63167
 L 60.6636,-2.57106 L 60.7304,-2.51498 L 60.801,-2.4637 L 60.875,-2.41747 L 60.952,-2.3765 L 61.0317,-2.34102
 L 61.1137,-2.31117 L 61.1976,-2.28712 L 61.2829,-2.26898 L 61.3693,-2.25684 L 61.4564,-2.25075 L 61.5436,-2.25075
 z
" stroke="black" fill="lightgray" stroke-width="0.5"/></svg>
